<svg width="60" height="64" viewBox="0 0 60 64" fill="none" xmlns="http://www.w3.org/2000/svg">
<path d="M8.61295 44.3894L11.6183 47.3934M14.5818 38.4231L17.5872 41.4272M32.4635 14.1109C28.8714 14.2589 25.3232 15.6998 22.5867 18.4351C18.409 22.6109 17.2481 28.6773 19.1031 33.9045L0.5 52.4994L5.91622 57.9133H13.0726L28.0977 42.8952C31.178 43.9873 34.5496 44.0323 37.6546 43.0323M37.6546 51.6411H41.9048M37.6546 43.2036H41.9048M25.4207 16.2175C24.3601 14.616 23.7425 12.696 23.7425 10.6318C23.7425 5.03617 28.2806 0.5 33.8787 0.5C39.4768 0.5 44.0148 5.03617 44.0148 10.6318V16.3718M58.855 23.4113C58.855 15.2324 52.1976 8.5778 44.0148 8.5778C35.8319 8.5778 29.1746 15.2324 29.1746 23.4113C29.1746 29.317 32.6452 34.427 37.6546 36.812V63.1094H45.3144L50.3748 58.0513V36.812C55.3842 34.427 58.855 29.317 58.855 23.4113ZM47.9133 20.2694C47.9133 22.4215 46.1678 24.1662 44.0148 24.1662C41.8618 24.1662 40.1163 22.4215 40.1163 20.2694C40.1163 18.1173 41.8618 16.3725 44.0148 16.3725C46.1678 16.3725 47.9133 18.1173 47.9133 20.2694Z" stroke="#BBADA1" stroke-miterlimit="10" stroke-linecap="round" stroke-linejoin="round"/>
</svg>
