<svg width="67" height="55" viewBox="0 0 67 55" fill="none" xmlns="http://www.w3.org/2000/svg">
<path d="M58.5322 47.2368L55.5999 52.4104C54.8594 53.7168 53.6212 54.5 52.2962 54.5H14.7038C13.3788 54.5 12.1406 53.7168 11.4001 52.4104L8.46781 47.2368H2.49195C1.39186 47.2368 0.5 46.1764 0.5 44.8684C0.5 43.5604 1.39186 42.5 2.49195 42.5H64.508C65.6081 42.5 66.5 43.5604 66.5 44.8684C66.5 46.1764 65.6081 47.2368 64.508 47.2368H13.272M36.5 3.5V9.5M30.5 3.5V9.5M33.5 9.5C15.2746 9.5 0.5 24.2746 0.5 42.5H66.5C66.5 24.2746 51.7254 9.5 33.5 9.5ZM27.5 2C27.5 2.8284 28.5746 3.5 29.9 3.5H37.1C38.4254 3.5 39.5 2.8284 39.5 2C39.5 1.1716 38.4254 0.5 37.1 0.5H29.9C28.5746 0.5 27.5 1.1716 27.5 2Z" stroke="#BBADA1" stroke-miterlimit="10" stroke-linecap="round" stroke-linejoin="round"/>
</svg>
