<svg width="72" height="72" viewBox="0 0 72 72" fill="none" xmlns="http://www.w3.org/2000/svg">
<path d="M63.8628 32.2217C66.3322 32.2217 68.334 34.2235 68.334 36.6929C68.334 39.1623 66.3322 41.1641 63.8628 41.1641H12.6065C7.66769 41.1641 3.66406 37.1605 3.66406 32.2217C3.66406 27.2829 7.66769 23.2793 12.6065 23.2793H63.8628C66.3322 23.2793 68.334 25.2811 68.334 27.7505C68.334 30.2199 66.3322 32.2217 63.8628 32.2217ZM63.8628 32.2217H63.1157M63.8628 32.2217L12.4535 32.2215M8.13527 50.1063C5.66587 50.1063 3.66406 48.1045 3.66406 45.6351C3.66406 43.1657 5.66587 41.1639 8.13527 41.1637H59.3914C64.3302 41.1637 68.3339 45.1673 68.3339 50.1061C68.3339 55.0449 64.3302 59.0485 59.3914 59.0485H8.13527C5.66587 59.0485 3.66406 57.0467 3.66406 54.5773C3.66406 52.1081 5.66587 50.1063 8.13527 50.1063ZM8.13527 50.1063H10.3833M59.5443 50.1059H7.63583M31.7569 23.2793H35.9989H40.241" stroke="#BBADA1" stroke-miterlimit="10"/>
<path d="M48.6233 13.6959H47.9789M47.9789 13.6959C45.1641 13.6959 42.8824 11.4142 42.8824 8.59949M47.9789 13.6959C45.1641 13.6959 42.8824 15.9776 42.8824 18.7924M42.8824 8.59949V7.95508M42.8824 8.59949C42.8824 11.4142 40.6008 13.6959 37.786 13.6959M37.786 13.6959H37.1416M37.786 13.6959C40.6008 13.6959 42.8824 15.9776 42.8824 18.7924M42.8824 18.7924V19.4368M34.8567 6.81311H34.2123M34.2123 6.81311C31.3975 6.81311 29.1158 4.53143 29.1158 1.71668M34.2123 6.81311C31.3975 6.81311 29.1158 9.09479 29.1158 11.9095M29.1158 1.71668V1.07227M29.1158 1.71668C29.1158 4.53143 26.8342 6.81311 24.0194 6.81311M24.0194 6.81311H23.375M24.0194 6.81311C26.8342 6.81311 29.1158 9.09479 29.1158 11.9095M29.1158 11.9095V12.554" stroke="#BBADA1" stroke-miterlimit="10"/>
</svg>
