<svg width="292" height="15" viewBox="0 0 292 15" fill="none" xmlns="http://www.w3.org/2000/svg">
<path d="M291.707 8.07112C292.098 7.6806 292.098 7.04743 291.707 6.65691L285.343 0.292946C284.953 -0.0975785 284.319 -0.0975785 283.929 0.292946C283.538 0.68347 283.538 1.31664 283.929 1.70716L289.586 7.36401L283.929 13.0209C283.538 13.4114 283.538 14.0446 283.929 14.4351C284.319 14.8256 284.953 14.8256 285.343 14.4351L291.707 8.07112ZM0 7.36401V8.36401H4.04167V7.36401V6.36401H0V7.36401ZM12.125 7.36401V8.36401H20.2083V7.36401V6.36401H12.125V7.36401ZM28.2917 7.36401V8.36401H36.375V7.36401V6.36401H28.2917V7.36401ZM44.4583 7.36401V8.36401H52.5417V7.36401V6.36401H44.4583V7.36401ZM60.625 7.36401V8.36401H68.7083V7.36401V6.36401H60.625V7.36401ZM76.7917 7.36401V8.36401H84.875V7.36401V6.36401H76.7917V7.36401ZM92.9583 7.36401V8.36401H101.042V7.36401V6.36401H92.9583V7.36401ZM109.125 7.36401V8.36401H117.208V7.36401V6.36401H109.125V7.36401ZM125.292 7.36401V8.36401H133.375V7.36401V6.36401H125.292V7.36401ZM141.458 7.36401V8.36401H149.542V7.36401V6.36401H141.458V7.36401ZM157.625 7.36401V8.36401H165.708V7.36401V6.36401H157.625V7.36401ZM173.792 7.36401V8.36401H181.875V7.36401V6.36401H173.792V7.36401ZM189.958 7.36401V8.36401H198.042V7.36401V6.36401H189.958V7.36401ZM206.125 7.36401V8.36401H214.208V7.36401V6.36401H206.125V7.36401ZM222.292 7.36401V8.36401H230.375V7.36401V6.36401H222.292V7.36401ZM238.458 7.36401V8.36401H246.542V7.36401V6.36401H238.458V7.36401ZM254.625 7.36401V8.36401H262.708V7.36401V6.36401H254.625V7.36401ZM270.792 7.36401V8.36401H278.875V7.36401V6.36401H270.792V7.36401ZM286.958 7.36401V8.36401H291V7.36401V6.36401H286.958V7.36401ZM291.707 8.07112C292.098 7.6806 292.098 7.04743 291.707 6.65691L285.343 0.292946C284.953 -0.0975785 284.319 -0.0975785 283.929 0.292946C283.538 0.68347 283.538 1.31664 283.929 1.70716L289.586 7.36401L283.929 13.0209C283.538 13.4114 283.538 14.0446 283.929 14.4351C284.319 14.8256 284.953 14.8256 285.343 14.4351L291.707 8.07112ZM0 7.36401V8.36401H4.04167V7.36401V6.36401H0V7.36401ZM12.125 7.36401V8.36401H20.2083V7.36401V6.36401H12.125V7.36401ZM28.2917 7.36401V8.36401H36.375V7.36401V6.36401H28.2917V7.36401ZM44.4583 7.36401V8.36401H52.5417V7.36401V6.36401H44.4583V7.36401ZM60.625 7.36401V8.36401H68.7083V7.36401V6.36401H60.625V7.36401ZM76.7917 7.36401V8.36401H84.875V7.36401V6.36401H76.7917V7.36401ZM92.9583 7.36401V8.36401H101.042V7.36401V6.36401H92.9583V7.36401ZM109.125 7.36401V8.36401H117.208V7.36401V6.36401H109.125V7.36401ZM125.292 7.36401V8.36401H133.375V7.36401V6.36401H125.292V7.36401ZM141.458 7.36401V8.36401H149.542V7.36401V6.36401H141.458V7.36401ZM157.625 7.36401V8.36401H165.708V7.36401V6.36401H157.625V7.36401ZM173.792 7.36401V8.36401H181.875V7.36401V6.36401H173.792V7.36401ZM189.958 7.36401V8.36401H198.042V7.36401V6.36401H189.958V7.36401ZM206.125 7.36401V8.36401H214.208V7.36401V6.36401H206.125V7.36401ZM222.292 7.36401V8.36401H230.375V7.36401V6.36401H222.292V7.36401ZM238.458 7.36401V8.36401H246.542V7.36401V6.36401H238.458V7.36401ZM254.625 7.36401V8.36401H262.708V7.36401V6.36401H254.625V7.36401ZM270.792 7.36401V8.36401H278.875V7.36401V6.36401H270.792V7.36401ZM286.958 7.36401V8.36401H291V7.36401V6.36401H286.958V7.36401Z" fill="#4F4744"/>
</svg>
