<svg width="273" height="15" viewBox="0 0 273 15" fill="none" xmlns="http://www.w3.org/2000/svg">
<path d="M272.707 8.07112C273.098 7.6806 273.098 7.04743 272.707 6.65691L266.343 0.292946C265.953 -0.0975785 265.319 -0.0975785 264.929 0.292946C264.538 0.68347 264.538 1.31664 264.929 1.70716L270.586 7.36401L264.929 13.0209C264.538 13.4114 264.538 14.0446 264.929 14.4351C265.319 14.8256 265.953 14.8256 266.343 14.4351L272.707 8.07112ZM0 7.36401V8.36401H4V7.36401V6.36401H0V7.36401ZM12 7.36401V8.36401H20V7.36401V6.36401H12V7.36401ZM28 7.36401V8.36401H36V7.36401V6.36401H28V7.36401ZM44 7.36401V8.36401H52V7.36401V6.36401H44V7.36401ZM60 7.36401V8.36401H68V7.36401V6.36401H60V7.36401ZM76 7.36401V8.36401H84V7.36401V6.36401H76V7.36401ZM92 7.36401V8.36401H100V7.36401V6.36401H92V7.36401ZM108 7.36401V8.36401H116V7.36401V6.36401H108V7.36401ZM124 7.36401V8.36401H132V7.36401V6.36401H124V7.36401ZM140 7.36401V8.36401H148V7.36401V6.36401H140V7.36401ZM156 7.36401V8.36401H164V7.36401V6.36401H156V7.36401ZM172 7.36401V8.36401H180V7.36401V6.36401H172V7.36401ZM188 7.36401V8.36401H196V7.36401V6.36401H188V7.36401ZM204 7.36401V8.36401H212V7.36401V6.36401H204V7.36401ZM220 7.36401V8.36401H228V7.36401V6.36401H220V7.36401ZM236 7.36401V8.36401H244V7.36401V6.36401H236V7.36401ZM252 7.36401V8.36401H260V7.36401V6.36401H252V7.36401ZM268 7.36401V8.36401H272V7.36401V6.36401H268V7.36401ZM272.707 8.07112C273.098 7.6806 273.098 7.04743 272.707 6.65691L266.343 0.292946C265.953 -0.0975785 265.319 -0.0975785 264.929 0.292946C264.538 0.68347 264.538 1.31664 264.929 1.70716L270.586 7.36401L264.929 13.0209C264.538 13.4114 264.538 14.0446 264.929 14.4351C265.319 14.8256 265.953 14.8256 266.343 14.4351L272.707 8.07112ZM0 7.36401V8.36401H4V7.36401V6.36401H0V7.36401ZM12 7.36401V8.36401H20V7.36401V6.36401H12V7.36401ZM28 7.36401V8.36401H36V7.36401V6.36401H28V7.36401ZM44 7.36401V8.36401H52V7.36401V6.36401H44V7.36401ZM60 7.36401V8.36401H68V7.36401V6.36401H60V7.36401ZM76 7.36401V8.36401H84V7.36401V6.36401H76V7.36401ZM92 7.36401V8.36401H100V7.36401V6.36401H92V7.36401ZM108 7.36401V8.36401H116V7.36401V6.36401H108V7.36401ZM124 7.36401V8.36401H132V7.36401V6.36401H124V7.36401ZM140 7.36401V8.36401H148V7.36401V6.36401H140V7.36401ZM156 7.36401V8.36401H164V7.36401V6.36401H156V7.36401ZM172 7.36401V8.36401H180V7.36401V6.36401H172V7.36401ZM188 7.36401V8.36401H196V7.36401V6.36401H188V7.36401ZM204 7.36401V8.36401H212V7.36401V6.36401H204V7.36401ZM220 7.36401V8.36401H228V7.36401V6.36401H220V7.36401ZM236 7.36401V8.36401H244V7.36401V6.36401H236V7.36401ZM252 7.36401V8.36401H260V7.36401V6.36401H252V7.36401ZM268 7.36401V8.36401H272V7.36401V6.36401H268V7.36401Z" fill="#4F4744"/>
</svg>
