<svg width="65" height="26" viewBox="0 0 65 26" fill="none" xmlns="http://www.w3.org/2000/svg">
<path d="M59.2631 13.1428C60.2553 13.6837 61.007 14.1796 61.0822 14.9009C61.007 14.8708 60.9168 14.8408 60.8567 14.8107C60.5109 14.6604 60.12 14.4801 59.7141 14.4801C59.5638 14.4801 59.4134 14.5102 59.2781 14.5553C59.2481 14.5553 59.218 14.5853 59.1729 14.6003C59.1128 14.4801 59.0526 14.1796 59.0977 13.7889C59.1278 13.4734 59.203 13.248 59.2781 13.1428M61.2927 15.9527C61.5483 15.9527 61.7587 15.8475 61.9091 15.6522C62.0294 15.4869 62.0745 15.2915 62.0745 15.0211C62.0745 13.5335 60.6462 12.7821 59.5036 12.1661C59.4285 12.136 59.3533 12.106 59.2781 12.106C58.4663 12.106 58.1055 13.1127 58.1055 14.0293C58.1055 14.9459 58.5114 15.6221 59.1278 15.6221C59.2932 15.6221 59.4736 15.5771 59.6389 15.4719C59.8194 15.4418 60.1651 15.5771 60.4508 15.7123C60.7364 15.8325 61.0221 15.9677 61.2927 15.9677" fill="#4F4744"/>
<path d="M6.74784 20.6855C6.97336 20.6855 7.1688 20.5352 7.22893 20.3098C7.28907 20.0394 7.13873 19.7839 6.86812 19.7088L1.26041 18.3263C1.04994 13.1573 3.03443 8.81465 4.49274 8.48407C4.64308 8.45402 4.76335 8.34883 4.82348 8.21359C4.88362 8.07836 4.88362 7.91306 4.80845 7.77783L4.23716 6.72598C8.95785 6.45551 12.6562 5.41869 15.5277 3.55541C18.4443 2.26315 20.519 2.03775 29.1636 2.03775C35.2524 2.03775 36.0342 2.50357 41.1157 5.5389C42.3034 6.24514 43.8068 7.13169 45.641 8.18354C48.9635 9.83644 51.3238 10.1971 54.3006 10.6479C54.7366 10.708 55.1876 10.7831 55.6687 10.8582L61.2463 11.7298C61.562 12.6163 61.9529 13.4879 62.3137 14.2542C62.9001 15.5164 63.5014 16.8087 63.2308 17.3346C63.2007 17.3947 63.1105 17.575 62.6144 17.6952L59.8482 18.1761C59.5775 18.2212 59.3971 18.4766 59.4573 18.7471C59.5024 19.0176 59.7579 19.1979 60.0286 19.1378L62.8099 18.6419C63.4563 18.5067 63.8923 18.2061 64.1028 17.7704C64.5688 16.8237 63.9675 15.5014 63.1857 13.8335C62.8099 13.007 62.3739 12.0754 62.0582 11.1287C61.998 10.9484 61.8477 10.8282 61.6673 10.7981L55.804 9.88152C55.3229 9.80639 54.8719 9.73126 54.4359 9.67115C51.5343 9.23539 49.2491 8.88978 46.092 7.31201C44.2879 6.29022 42.7995 5.40366 41.6118 4.69742C36.4251 1.61701 35.493 1.06104 29.1486 1.06104C20.2935 1.06104 18.1888 1.30146 15.0917 2.66886C15.0617 2.66886 15.0466 2.69891 15.0166 2.69891C12.13 4.57721 8.32642 5.58398 3.39525 5.77932C3.22987 5.77932 3.0645 5.8845 2.98933 6.01974C2.91416 6.17 2.89912 6.35032 2.98933 6.50059L3.6809 7.7628C1.59116 8.99497 -0.00244921 13.9687 0.283198 18.7471C0.283198 18.9575 0.448573 19.1378 0.659049 19.1979L6.62757 20.6705C6.62757 20.6705 6.70274 20.6705 6.74784 20.6705" fill="#4F4744"/>
<path d="M21.5274 20.6856H45.1008C45.3714 20.6856 45.5969 20.4602 45.5969 20.1897C45.5969 19.9192 45.3714 19.6938 45.1008 19.6938H21.5274C21.2568 19.6938 21.0312 19.9192 21.0312 20.1897C21.0312 20.4602 21.2568 20.6856 21.5274 20.6856Z" fill="#4F4744"/>
<path d="M5.30343 9.88164C5.27336 10.0169 5.22826 10.2122 5.19819 10.3475C5.06288 10.8884 4.88247 11.5646 5.10798 12.1506C5.10798 12.1807 5.13805 12.2107 5.15309 12.2408C5.22826 12.346 5.21322 12.391 5.21322 12.391C5.18315 12.4511 4.91254 12.6014 4.44649 12.6014C4.02553 12.6014 3.75492 12.4812 3.67975 12.391C4.13077 11.0837 4.56676 10.0018 5.30343 9.88164ZM4.46152 13.5781C5.06288 13.5781 5.79955 13.3828 6.10023 12.8418C6.20547 12.6465 6.32574 12.2558 6.02506 11.7449C5.93486 11.4594 6.05513 10.9786 6.16037 10.5879C6.29567 10.062 6.43098 9.55106 6.14533 9.19042C6.02506 9.04016 5.78452 8.84482 5.30343 8.8899C3.80002 9.02514 3.19866 10.7982 2.71757 12.2258C2.70253 12.2859 2.6875 12.361 2.6875 12.4211C2.74764 13.1123 3.46927 13.5781 4.46152 13.5781Z" fill="#4F4744"/>
<path d="M45.4169 10.0013C45.6725 10.0013 45.898 9.79092 45.913 9.53547C45.913 9.26499 45.7176 9.0396 45.4469 9.02457L42.8761 8.90436L41.3727 6.66543C41.2524 6.48511 41.0269 6.40998 40.8164 6.47008C40.606 6.53019 40.4707 6.72553 40.4707 6.9359V8.78415L17.3783 7.70225C17.1077 7.68722 16.8822 7.89759 16.8672 8.16807C16.8672 8.43854 17.0626 8.66394 17.3332 8.67896L40.9518 9.79092C41.0871 9.79092 41.2224 9.74584 41.3126 9.65568C41.4028 9.56552 41.4629 9.43028 41.4629 9.29504V8.5287L42.2146 9.64065C42.3048 9.77589 42.4401 9.85102 42.6055 9.85102L45.4319 9.98626H45.462" fill="#4F4744"/>
<path d="M52.4672 14.3151C55.1282 14.3151 57.2931 16.4789 57.2931 19.1386C57.2931 21.7982 55.1282 23.962 52.4672 23.962C49.8062 23.962 47.6413 21.7982 47.6413 19.1386C47.6413 16.4789 49.8062 14.3151 52.4672 14.3151ZM52.4672 24.9387C55.6695 24.9387 58.2704 22.3392 58.2704 19.1386C58.2704 15.9379 55.6695 13.3384 52.4672 13.3384C49.265 13.3384 46.6641 15.9379 46.6641 19.1386C46.6641 22.3392 49.265 24.9387 52.4672 24.9387Z" fill="#4F4744"/>
<path d="M14.1586 14.3151C16.8196 14.3151 18.9846 16.4789 18.9846 19.1386C18.9846 21.7982 16.8196 23.962 14.1586 23.962C11.4976 23.962 9.33268 21.7982 9.33268 19.1386C9.33268 16.4789 11.4976 14.3151 14.1586 14.3151ZM14.1586 24.9387C17.3609 24.9387 19.9618 22.3392 19.9618 19.1386C19.9618 15.9379 17.3609 13.3384 14.1586 13.3384C10.9564 13.3384 8.35547 15.9379 8.35547 19.1386C8.35547 22.3392 10.9564 24.9387 14.1586 24.9387Z" fill="#4F4744"/>
<path d="M59.2631 13.1428C60.2553 13.6837 61.007 14.1796 61.0822 14.9009C61.007 14.8708 60.9168 14.8408 60.8567 14.8107C60.5109 14.6604 60.12 14.4801 59.7141 14.4801C59.5638 14.4801 59.4134 14.5102 59.2781 14.5553C59.2481 14.5553 59.218 14.5853 59.1729 14.6003C59.1127 14.4801 59.0526 14.1796 59.0977 13.7889C59.1278 13.4734 59.203 13.248 59.2781 13.1428M61.2927 15.9527C61.5483 15.9527 61.7587 15.8475 61.9091 15.6522C62.0294 15.4869 62.0745 15.2916 62.0745 15.0211C62.0745 13.5335 60.6462 12.7821 59.5036 12.1661C59.4285 12.136 59.3533 12.106 59.2781 12.106C58.4663 12.106 58.1055 13.1127 58.1055 14.0293C58.1055 14.9459 58.5114 15.6221 59.1278 15.6221C59.2932 15.6221 59.4736 15.5771 59.6389 15.4719C59.8194 15.4418 60.1651 15.5771 60.4508 15.7123C60.7364 15.8325 61.0221 15.9677 61.2927 15.9677M6.74784 20.6855C6.97336 20.6855 7.1688 20.5352 7.22893 20.3098C7.28907 20.0394 7.13873 19.7839 6.86812 19.7088L1.26041 18.3263C1.04994 13.1573 3.03443 8.81465 4.49274 8.48407C4.64308 8.45402 4.76335 8.34883 4.82348 8.21359C4.88362 8.07836 4.88362 7.91307 4.80845 7.77783L4.23716 6.72598C8.95785 6.45551 12.6562 5.41869 15.5277 3.55541C18.4443 2.26315 20.519 2.03775 29.1636 2.03775C35.2524 2.03775 36.0342 2.50357 41.1157 5.5389C42.3034 6.24514 43.8068 7.13169 45.641 8.18354C48.9635 9.83644 51.3238 10.1971 54.3006 10.6479C54.7366 10.708 55.1876 10.7831 55.6687 10.8582L61.2463 11.7298C61.562 12.6163 61.9529 13.4879 62.3137 14.2542C62.9001 15.5164 63.5014 16.8087 63.2308 17.3346C63.2007 17.3947 63.1105 17.575 62.6144 17.6952L59.8482 18.1761C59.5775 18.2212 59.3971 18.4766 59.4573 18.7471C59.5024 19.0176 59.7579 19.1979 60.0286 19.1378L62.8099 18.6419C63.4563 18.5067 63.8923 18.2061 64.1028 17.7704C64.5689 16.8237 63.9675 15.5014 63.1857 13.8335C62.8099 13.007 62.3739 12.0754 62.0582 11.1287C61.998 10.9484 61.8477 10.8282 61.6673 10.7981L55.804 9.88152C55.3229 9.80639 54.8719 9.73126 54.4359 9.67115C51.5343 9.23539 49.2491 8.88978 46.092 7.31201C44.2879 6.29022 42.7995 5.40366 41.6118 4.69742C36.4251 1.61701 35.493 1.06104 29.1486 1.06104C20.2935 1.06104 18.1888 1.30146 15.0917 2.66886C15.0617 2.66886 15.0466 2.69891 15.0166 2.69891C12.13 4.57721 8.32642 5.58398 3.39525 5.77932C3.22987 5.77932 3.0645 5.8845 2.98933 6.01974C2.91416 6.17 2.89912 6.35032 2.98933 6.50059L3.6809 7.7628C1.59116 8.99496 -0.00244922 13.9687 0.283198 18.7471C0.283198 18.9575 0.448573 19.1378 0.659049 19.1979L6.62757 20.6705C6.62757 20.6705 6.70274 20.6705 6.74784 20.6705M45.4169 10.0013C45.6725 10.0013 45.898 9.79092 45.913 9.53547C45.913 9.26499 45.7176 9.0396 45.4469 9.02457L42.8761 8.90436L41.3727 6.66543C41.2524 6.48511 41.0269 6.40998 40.8164 6.47008C40.606 6.53019 40.4707 6.72553 40.4707 6.9359V8.78415L17.3783 7.70225C17.1077 7.68722 16.8822 7.89759 16.8672 8.16807C16.8672 8.43854 17.0626 8.66394 17.3332 8.67896L40.9518 9.79092C41.0871 9.79092 41.2224 9.74584 41.3126 9.65568C41.4028 9.56552 41.4629 9.43028 41.4629 9.29504V8.5287L42.2146 9.64065C42.3048 9.77589 42.4401 9.85102 42.6055 9.85102L45.4319 9.98626H45.462M21.5274 20.6856H45.1008C45.3714 20.6856 45.5969 20.4602 45.5969 20.1897C45.5969 19.9192 45.3714 19.6938 45.1008 19.6938H21.5274C21.2568 19.6938 21.0312 19.9192 21.0312 20.1897C21.0312 20.4602 21.2568 20.6856 21.5274 20.6856ZM5.30343 9.88164C5.27336 10.0169 5.22826 10.2122 5.19819 10.3475C5.06288 10.8884 4.88247 11.5646 5.10798 12.1506C5.10798 12.1807 5.13805 12.2107 5.15309 12.2408C5.22826 12.346 5.21322 12.391 5.21322 12.391C5.18315 12.4512 4.91254 12.6014 4.44649 12.6014C4.02553 12.6014 3.75492 12.4812 3.67975 12.391C4.13077 11.0837 4.56676 10.0018 5.30343 9.88164ZM4.46152 13.5781C5.06288 13.5781 5.79955 13.3828 6.10023 12.8418C6.20547 12.6465 6.32574 12.2558 6.02506 11.7449C5.93486 11.4594 6.05513 10.9786 6.16037 10.5879C6.29567 10.062 6.43098 9.55106 6.14533 9.19042C6.02506 9.04016 5.78452 8.84482 5.30343 8.8899C3.80002 9.02513 3.19866 10.7982 2.71757 12.2258C2.70253 12.2859 2.6875 12.361 2.6875 12.4211C2.74764 13.1123 3.46927 13.5781 4.46152 13.5781ZM52.4672 14.3151C55.1282 14.3151 57.2931 16.4789 57.2931 19.1386C57.2931 21.7982 55.1282 23.962 52.4672 23.962C49.8062 23.962 47.6413 21.7982 47.6413 19.1386C47.6413 16.4789 49.8062 14.3151 52.4672 14.3151ZM52.4672 24.9387C55.6695 24.9387 58.2704 22.3392 58.2704 19.1386C58.2704 15.9379 55.6695 13.3384 52.4672 13.3384C49.265 13.3384 46.6641 15.9379 46.6641 19.1386C46.6641 22.3392 49.265 24.9387 52.4672 24.9387ZM14.1586 14.3151C16.8196 14.3151 18.9846 16.4789 18.9846 19.1386C18.9846 21.7982 16.8196 23.962 14.1586 23.962C11.4976 23.962 9.33268 21.7982 9.33268 19.1386C9.33268 16.4789 11.4976 14.3151 14.1586 14.3151ZM14.1586 24.9387C17.3609 24.9387 19.9618 22.3392 19.9618 19.1386C19.9618 15.9379 17.3609 13.3384 14.1586 13.3384C10.9564 13.3384 8.35547 15.9379 8.35547 19.1386C8.35547 22.3392 10.9564 24.9387 14.1586 24.9387Z" stroke="#4F4744" stroke-width="0.5"/>
</svg>
