<svg width="128" height="128" viewBox="0 0 128 128" fill="none" xmlns="http://www.w3.org/2000/svg">
<path d="M8 48C8 21.4903 29.4903 0 56 0H72C98.5097 0 120 21.4903 120 48V128H8V48Z" fill="#8A8077"/>
<path d="M94.3233 87.2596V54.6221C94.3233 38.581 80.738 25.5321 64.0375 25.5321C47.3369 25.5321 33.7516 38.581 33.7516 54.6221V88.072L49.8848 67.0334L57.8925 78.509L74.3576 57.9537L78.6505 64.2776L94.3233 87.2596ZM32.1565 107.27V54.6221C32.1565 50.509 32.9916 46.4884 34.6616 42.7044C36.2674 39.054 38.5798 35.7738 41.4917 32.9666C44.4143 30.1594 47.8294 27.9486 51.6298 26.4062C55.5694 24.8021 59.7553 24 64.0375 24C68.3197 24 72.5055 24.8021 76.4451 26.4062C80.2456 27.9486 83.6606 30.1697 86.5832 32.9666C89.5058 35.7738 91.8075 39.054 93.4133 42.7044C95.0834 46.4884 95.9184 50.509 95.9184 54.6221V107.609C96.6892 107.609 97.4279 107.609 98.1344 107.609H120C120 108 120 112 120 112C119.722 112.195 106.506 112 105.971 112C101.507 112 97.0425 112 92.5783 112H86.4226C82.7614 112 78.0081 109.943 75.2996 107.702C71.1352 104.278 69.1654 98.7661 72.2272 94.2005C68.416 94.6735 64.0589 97.2956 61.6287 99.0026C53.4176 104.895 43.3866 112 32.6276 112H8.00169C8.00169 112 8 108 8 107.609H22.4145C26.2471 107.589 29.3838 107.527 32.1458 107.28M94.3126 107.609V90.6324L74.1542 61.0077L57.4857 81.7892L57.5821 81.3779L49.7349 70.0977L33.7302 90.9306V107.095C41.7058 106.118 46.8766 103.249 58.4599 94.9512C68.9085 87.4344 79.6996 86.3959 83.9069 96.2365C78.2651 92.4833 72.4734 98.6632 78.7147 103.846C82.6329 107.116 88.9277 107.558 94.3126 107.599" fill="white"/>
</svg>
