<svg width="28" height="28" viewBox="0 0 28 28" fill="none" xmlns="http://www.w3.org/2000/svg">
<path d="M8.39906 12.3192C8.39906 11.3913 7.64698 10.6392 6.71906 10.6392C5.79114 10.6392 5.03906 11.3913 5.03906 12.3192V17.9192C5.03906 22.5582 8.80002 26.3192 13.4391 26.3192C18.0781 26.3192 21.8391 22.5582 21.8391 17.9192V13.4392C21.8391 12.5113 21.087 11.7592 20.1591 11.7592C19.2311 11.7592 18.4791 12.5113 18.4791 13.4392V12.3192C18.4791 11.3913 17.727 10.6392 16.7991 10.6392C15.8711 10.6392 15.1191 11.3913 15.1191 12.3192V11.1992C15.1191 10.2713 14.367 9.5192 13.4391 9.5192C12.5111 9.5192 11.7591 10.2713 11.7591 11.1992V3.3592C11.7591 2.43128 11.007 1.6792 10.0791 1.6792C9.15114 1.6792 8.39906 2.43128 8.39906 3.3592V16.2392V12.3192Z" stroke="white" stroke-miterlimit="10" stroke-linecap="round" stroke-linejoin="round"/>
<path d="M22.4025 4.47998H14.5625" stroke="white" stroke-miterlimit="10" stroke-linecap="round" stroke-linejoin="round"/>
<path d="M20.7227 2.79932L22.4027 4.47932L20.7227 6.15932" stroke="white" stroke-miterlimit="10" stroke-linecap="round" stroke-linejoin="round"/>
<path d="M16.2425 2.79932L14.5625 4.47932L16.2425 6.15932" stroke="white" stroke-miterlimit="10" stroke-linecap="round" stroke-linejoin="round"/>
</svg>
