<?xml version="1.0" encoding="UTF-8"?>
<!-- Generated by Pixelmator Pro 3.7.1 -->
<svg width="16" height="15" viewBox="0 0 16 15" xmlns="http://www.w3.org/2000/svg">
    <path id="path1" fill="#4f4744" stroke="none" d="M 266.707001 8.07112 C 267.097992 7.6806 267.097992 7.04743 266.707001 6.65691 L 260.342987 0.292946 C 259.953003 -0.097578 259.319 -0.097578 258.928986 0.292946 C 258.537994 0.68347 258.537994 1.31664 258.928986 1.70716 L 264.585999 7.36401 L 258.928986 13.0209 C 258.537994 13.4114 258.537994 14.0446 258.928986 14.4351 C 259.319 14.8256 259.953003 14.8256 260.342987 14.4351 L 266.707001 8.07112 Z M -25 7.36401 L -25 8.36401 L -20.95833 8.36401 L -20.95833 7.36401 L -20.95833 6.36401 L -25 6.36401 L -25 7.36401 Z M -12.875 7.36401 L -12.875 8.36401 L -4.7917 8.36401 L -4.7917 7.36401 L -4.7917 6.36401 L -12.875 6.36401 L -12.875 7.36401 Z M 3.2917 7.36401 L 3.2917 8.36401 L 11.375 8.36401 L 11.375 7.36401 L 11.375 6.36401 L 3.2917 6.36401 L 3.2917 7.36401 Z M 19.458302 7.36401 L 19.458302 8.36401 L 27.541698 8.36401 L 27.541698 7.36401 L 27.541698 6.36401 L 19.458302 6.36401 L 19.458302 7.36401 Z M 35.625 7.36401 L 35.625 8.36401 L 43.708298 8.36401 L 43.708298 7.36401 L 43.708298 6.36401 L 35.625 6.36401 L 35.625 7.36401 Z M 51.791702 7.36401 L 51.791702 8.36401 L 59.875 8.36401 L 59.875 7.36401 L 59.875 6.36401 L 51.791702 6.36401 L 51.791702 7.36401 Z M 67.958298 7.36401 L 67.958298 8.36401 L 76.042 8.36401 L 76.042 7.36401 L 76.042 6.36401 L 67.958298 6.36401 L 67.958298 7.36401 Z M 84.125 7.36401 L 84.125 8.36401 L 92.208 8.36401 L 92.208 7.36401 L 92.208 6.36401 L 84.125 6.36401 L 84.125 7.36401 Z M 100.292 7.36401 L 100.292 8.36401 L 108.375 8.36401 L 108.375 7.36401 L 108.375 6.36401 L 100.292 6.36401 L 100.292 7.36401 Z M 116.457993 7.36401 L 116.457993 8.36401 L 124.542007 8.36401 L 124.542007 7.36401 L 124.542007 6.36401 L 116.457993 6.36401 L 116.457993 7.36401 Z M 132.625 7.36401 L 132.625 8.36401 L 140.707993 8.36401 L 140.707993 7.36401 L 140.707993 6.36401 L 132.625 6.36401 L 132.625 7.36401 Z M 148.792007 7.36401 L 148.792007 8.36401 L 156.875 8.36401 L 156.875 7.36401 L 156.875 6.36401 L 148.792007 6.36401 L 148.792007 7.36401 Z M 164.957993 7.36401 L 164.957993 8.36401 L 173.042007 8.36401 L 173.042007 7.36401 L 173.042007 6.36401 L 164.957993 6.36401 L 164.957993 7.36401 Z M 181.125 7.36401 L 181.125 8.36401 L 189.207993 8.36401 L 189.207993 7.36401 L 189.207993 6.36401 L 181.125 6.36401 L 181.125 7.36401 Z M 197.292007 7.36401 L 197.292007 8.36401 L 205.375 8.36401 L 205.375 7.36401 L 205.375 6.36401 L 197.292007 6.36401 L 197.292007 7.36401 Z M 213.457993 7.36401 L 213.457993 8.36401 L 221.542007 8.36401 L 221.542007 7.36401 L 221.542007 6.36401 L 213.457993 6.36401 L 213.457993 7.36401 Z M 229.625 7.36401 L 229.625 8.36401 L 237.708008 8.36401 L 237.708008 7.36401 L 237.708008 6.36401 L 229.625 6.36401 L 229.625 7.36401 Z M 245.791992 7.36401 L 245.791992 8.36401 L 253.875 8.36401 L 253.875 7.36401 L 253.875 6.36401 L 245.791992 6.36401 L 245.791992 7.36401 Z M 261.958008 7.36401 L 261.958008 8.36401 L 266 8.36401 L 266 7.36401 L 266 6.36401 L 261.958008 6.36401 L 261.958008 7.36401 Z M 266.707001 8.07112 C 267.097992 7.6806 267.097992 7.04743 266.707001 6.65691 L 260.342987 0.292946 C 259.953003 -0.097578 259.319 -0.097578 258.928986 0.292946 C 258.537994 0.68347 258.537994 1.31664 258.928986 1.70716 L 264.585999 7.36401 L 258.928986 13.0209 C 258.537994 13.4114 258.537994 14.0446 258.928986 14.4351 C 259.319 14.8256 259.953003 14.8256 260.342987 14.4351 L 266.707001 8.07112 Z M -25 7.36401 L -25 8.36401 L -20.95833 8.36401 L -20.95833 7.36401 L -20.95833 6.36401 L -25 6.36401 L -25 7.36401 Z M -12.875 7.36401 L -12.875 8.36401 L -4.7917 8.36401 L -4.7917 7.36401 L -4.7917 6.36401 L -12.875 6.36401 L -12.875 7.36401 Z M 3.2917 7.36401 L 3.2917 8.36401 L 11.375 8.36401 L 11.375 7.36401 L 11.375 6.36401 L 3.2917 6.36401 L 3.2917 7.36401 Z M 19.458302 7.36401 L 19.458302 8.36401 L 27.541698 8.36401 L 27.541698 7.36401 L 27.541698 6.36401 L 19.458302 6.36401 L 19.458302 7.36401 Z M 35.625 7.36401 L 35.625 8.36401 L 43.708298 8.36401 L 43.708298 7.36401 L 43.708298 6.36401 L 35.625 6.36401 L 35.625 7.36401 Z M 51.791702 7.36401 L 51.791702 8.36401 L 59.875 8.36401 L 59.875 7.36401 L 59.875 6.36401 L 51.791702 6.36401 L 51.791702 7.36401 Z M 67.958298 7.36401 L 67.958298 8.36401 L 76.042 8.36401 L 76.042 7.36401 L 76.042 6.36401 L 67.958298 6.36401 L 67.958298 7.36401 Z M 84.125 7.36401 L 84.125 8.36401 L 92.208 8.36401 L 92.208 7.36401 L 92.208 6.36401 L 84.125 6.36401 L 84.125 7.36401 Z M 100.292 7.36401 L 100.292 8.36401 L 108.375 8.36401 L 108.375 7.36401 L 108.375 6.36401 L 100.292 6.36401 L 100.292 7.36401 Z M 116.457993 7.36401 L 116.457993 8.36401 L 124.542007 8.36401 L 124.542007 7.36401 L 124.542007 6.36401 L 116.457993 6.36401 L 116.457993 7.36401 Z M 132.625 7.36401 L 132.625 8.36401 L 140.707993 8.36401 L 140.707993 7.36401 L 140.707993 6.36401 L 132.625 6.36401 L 132.625 7.36401 Z M 148.792007 7.36401 L 148.792007 8.36401 L 156.875 8.36401 L 156.875 7.36401 L 156.875 6.36401 L 148.792007 6.36401 L 148.792007 7.36401 Z M 164.957993 7.36401 L 164.957993 8.36401 L 173.042007 8.36401 L 173.042007 7.36401 L 173.042007 6.36401 L 164.957993 6.36401 L 164.957993 7.36401 Z M 181.125 7.36401 L 181.125 8.36401 L 189.207993 8.36401 L 189.207993 7.36401 L 189.207993 6.36401 L 181.125 6.36401 L 181.125 7.36401 Z M 197.292007 7.36401 L 197.292007 8.36401 L 205.375 8.36401 L 205.375 7.36401 L 205.375 6.36401 L 197.292007 6.36401 L 197.292007 7.36401 Z M 213.457993 7.36401 L 213.457993 8.36401 L 221.542007 8.36401 L 221.542007 7.36401 L 221.542007 6.36401 L 213.457993 6.36401 L 213.457993 7.36401 Z M 229.625 7.36401 L 229.625 8.36401 L 237.708008 8.36401 L 237.708008 7.36401 L 237.708008 6.36401 L 229.625 6.36401 L 229.625 7.36401 Z M 245.791992 7.36401 L 245.791992 8.36401 L 253.875 8.36401 L 253.875 7.36401 L 253.875 6.36401 L 245.791992 6.36401 L 245.791992 7.36401 Z M 261.958008 7.36401 L 261.958008 8.36401 L 266 8.36401 L 266 7.36401 L 266 6.36401 L 261.958008 6.36401 L 261.958008 7.36401 Z"/>
</svg>
