<svg width="25" height="25" viewBox="0 0 25 25" fill="none" xmlns="http://www.w3.org/2000/svg">
<path d="M24.5003 24.5003L18.7096 18.7096M18.7096 18.7096C19.7001 17.7191 20.4858 16.5432 21.0219 15.249C21.558 13.9548 21.8339 12.5677 21.8339 11.1669C21.8339 9.76614 21.558 8.37905 21.0219 7.08488C20.4858 5.79071 19.7001 4.61479 18.7096 3.62427C17.7191 2.63376 16.5432 1.84804 15.249 1.31197C13.9548 0.775909 12.5677 0.5 11.1669 0.5C9.76614 0.5 8.37905 0.775909 7.08488 1.31197C5.79071 1.84804 4.61479 2.63376 3.62427 3.62427C1.62384 5.62471 0.5 8.33789 0.5 11.1669C0.5 13.996 1.62384 16.7092 3.62427 18.7096C5.62471 20.71 8.33789 21.8339 11.1669 21.8339C13.996 21.8339 16.7092 20.71 18.7096 18.7096ZM11.1669 7.16694V15.1669M7.16694 11.1669H15.1669" stroke="#4F4744" stroke-linecap="round" stroke-linejoin="round"/>
</svg>
