<svg width="64" height="64" viewBox="0 0 64 64" fill="none" xmlns="http://www.w3.org/2000/svg">
<path d="M33.0693 5.33301C45.1371 5.33301 51.1709 5.33317 54.9199 9.08203C58.6689 12.831 58.6689 18.8649 58.6689 30.9326V33.0664C58.6689 45.1343 58.6689 51.168 54.9199 54.917C51.1709 58.666 45.1372 58.666 33.0693 58.666H30.9355C18.8679 58.666 12.834 58.666 9.08496 54.917C5.3361 51.168 5.33594 45.1341 5.33594 33.0664V30.9326C5.33594 18.8649 5.33597 12.831 9.08496 9.08203C12.834 5.33304 18.8679 5.33301 30.9355 5.33301H33.0693Z" fill="#8A8077"/>
<path fill-rule="evenodd" clip-rule="evenodd" d="M32.3446 47.9119C29.2001 47.9119 27.7397 47.4499 25.2077 45.5996C23.596 47.6809 18.5235 49.2991 18.3009 46.5237C18.3009 44.4456 17.8354 42.6932 17.323 40.7645C16.6966 38.4028 16 35.7757 16 31.956C15.9989 22.8498 23.4394 16 32.2604 16C41.0825 16 48 23.1839 48 32.0441C48 40.9053 40.8631 47.9119 32.3446 47.9119ZM32.4724 23.8738C28.1796 23.6481 24.8295 26.6373 24.0903 31.3177C23.4788 35.1933 24.5632 39.9157 25.491 40.1542C25.9278 40.2659 27.0494 39.3559 27.7397 38.6618C28.8752 39.401 30.179 39.9748 31.6277 40.051C36.0356 40.2821 39.9417 36.8201 40.1718 32.3954C40.4029 27.9718 36.8803 24.1058 32.4724 23.8738Z" fill="white"/>
</svg>
