<svg width="48" height="45" viewBox="0 0 48 45" fill="none" xmlns="http://www.w3.org/2000/svg">
<path d="M16.2254 0L17.5775 1.35211C9.97183 8.78873 3.38028 19.6056 2.87324 29.0704C5.40845 26.7042 8.11268 26.7042 9.6338 26.7042C14.3662 26.7042 18.2535 30.0845 18.2535 35.493C18.2535 41.0704 14.5352 44.9577 9.29577 44.9577C4.22535 44.9577 0 40.9014 0 32.6197C0 20.7887 7.2676 8.28168 16.2254 0ZM45.9718 0L47.3239 1.35211C39.7183 8.78873 33.1268 19.6056 32.6197 29.0704C35.1549 26.7042 37.8592 26.7042 39.3803 26.7042C44.1127 26.7042 48 30.0845 48 35.493C48 41.0704 44.2817 44.9577 39.0423 44.9577C33.9718 44.9577 29.7465 40.9014 29.7465 32.6197C29.7465 20.7887 37.0141 8.28168 45.9718 0Z" fill="#BBADA1"/>
</svg>
