<svg width="26" height="26" viewBox="0 0 26 26" fill="none" xmlns="http://www.w3.org/2000/svg">
<path d="M24.0833 7.41667C22.2273 3.178 17.6527 0.75 12.7207 0.75C6.482 0.75 1.354 5.486 0.75 11.55" stroke="black" stroke-width="1.5" stroke-linecap="round" stroke-linejoin="round"/>
<path d="M18.7327 7.94922H24.0261C24.1207 7.94939 24.2145 7.9309 24.302 7.8948C24.3895 7.85869 24.469 7.80568 24.536 7.73881C24.603 7.67193 24.6562 7.5925 24.6925 7.50506C24.7287 7.41762 24.7474 7.32388 24.7474 7.22922V1.94922M1.41406 18.0826C3.27006 22.3212 7.84473 24.7492 12.7767 24.7492C19.0154 24.7492 24.1434 20.0132 24.7474 13.9492" stroke="black" stroke-width="1.5" stroke-linecap="round" stroke-linejoin="round"/>
<path d="M6.76467 17.5508H1.47133C1.37667 17.5506 1.2829 17.5691 1.19539 17.6052C1.10788 17.6413 1.02835 17.6943 0.961354 17.7612C0.894355 17.8281 0.841201 17.9075 0.804934 17.9949C0.768667 18.0824 0.75 18.1761 0.75 18.2708V23.5508" stroke="black" stroke-width="1.5" stroke-linecap="round" stroke-linejoin="round"/>
</svg>
