<svg width="80" height="80" viewBox="0 0 80 80" fill="none" xmlns="http://www.w3.org/2000/svg">
<path d="M48.775 78.0089C19.525 83.3875 1 61.33 1 40M48.775 78.0089C62.3133 74.896 73.1601 64.7355 77.2466 51.5974C78.3861 47.9338 79 44.0386 79 40C79 35.6038 78.2726 31.3774 76.9316 27.4347C72.6227 14.767 61.979 5.02713 48.775 1.99115M48.775 78.0089C45.9546 78.6574 43.0173 79 40 79C18.4609 79 1 61.5391 1 40M1 40C1 18.67 18.55 -2.9 48.775 1.99115M1 40C1 18.4609 18.4609 1 40 1C43.0173 1 45.9546 1.34265 48.775 1.99115" stroke="#BBADA1"/>
<path d="M44 52L32 40L44 28" stroke="#4F4744" stroke-width="1.5"/>
</svg>
