<svg xmlns="http://www.w3.org/2000/svg">
  <symbol id="icon-slider-button" viewBox="0 0 80 80">
    <path d="M48.775 78.0089C19.525 83.3875 1 61.33 1 40M48.775 78.0089C62.3133 74.896 73.1601 64.7355 77.2466 51.5974C78.3861 47.9338 79 44.0386 79 40C79 35.6038 78.2726 31.3774 76.9316 27.4347C72.6227 14.767 61.979 5.02713 48.775 1.99115M48.775 78.0089C45.9546 78.6574 43.0173 79 40 79C18.4609 79 1 61.5391 1 40M1 40C1 18.67 18.55 -2.9 48.775 1.99115M1 40C1 18.4609 18.4609 1 40 1C43.0173 1 45.9546 1.34265 48.775 1.99115" fill="none" stroke="#BBADA1"/>
    <path d="M44 52L32 40L44 28" fill="none" stroke="#4F4744" stroke-width="1.5"/>
  </symbol>

<symbol id="icon-slider-button-hover" viewBox="0 0 80 80">
  <path d="M48.775 78.0089C19.525 83.3875 1 61.33 1 40
           M48.775 78.0089C62.3133 74.896 73.1601 64.7355 77.2466 51.5974
           C78.3861 47.9338 79 44.0386 79 40
           C79 35.6038 78.2726 31.3774 76.9316 27.4347
           C72.6227 14.767 61.979 5.02713 48.775 1.99115
           M48.775 78.0089C45.9546 78.6574 43.0173 79 40 79
           C18.4609 79 1 61.5391 1 40
           M1 40C1 18.67 18.55 -2.9 48.775 1.99115
           M1 40C1 18.4609 18.4609 1 40 1
           C43.0173 1 45.9546 1.34265 48.775 1.99115"
        stroke="#BBADA1" fill="none"/>
  <circle cx="40" cy="40" r="40" fill="black" fill-opacity="0.4"/>
  <path d="M44 28L32 40L44 52" stroke="white" stroke-width="1.5" fill="none"/>
</symbol>

  <symbol id="icon-vk" viewBox="0 0 64 64">
 <path fill-rule="evenodd" clip-rule="evenodd" d="M9.08302 9.08228C5.33398 12.8313 5.33398 18.8653 5.33398 30.9333V33.0666C5.33398 45.1345 5.33398 51.1685 9.08302 54.9176C12.832 58.6666 18.866 58.6666 30.9339 58.6666H30.934H33.0673H33.0673C45.1353 58.6666 51.1693 58.6666 54.9183 54.9176C58.6673 51.1685 58.6673 45.1346 58.6673 33.0666V33.0666V30.9332V30.9332C58.6673 18.8653 58.6673 12.8313 54.9183 9.08228C51.1693 5.33325 45.1353 5.33325 33.0673 5.33325H30.934C18.866 5.33325 12.8321 5.33325 9.08302 9.08228ZM14.334 21.5556C14.6229 35.4223 21.5561 43.7556 33.7117 43.7556L34.4007 43.7556V35.8222C38.8674 36.2667 42.2449 39.5333 43.6005 43.7556H49.9118C48.1785 37.4445 43.6227 33.9555 40.7782 32.6222C43.6227 30.9778 47.6227 26.9778 48.5782 21.5556H42.8447C41.6003 25.9556 37.9118 29.9555 34.4007 30.3333V21.5556H28.6672V36.9333C25.1117 36.0444 20.6229 31.7334 20.4229 21.5556L14.334 21.5556Z" fill="currentColor"/>
 </symbol>

    <symbol id="icon-tg" viewBox="0 0 64 64">
    <path d="M33.0693 5.33301C45.1371 5.33301 51.1709 5.33317 54.9199 9.08203C58.6689 12.831 58.6689 18.8649 58.6689 30.9326V33.0664C58.6689 45.1343 58.6689 51.168 54.9199 54.917C51.1709 58.666 45.1372 58.666 33.0693 58.666H30.9355C18.8679 58.666 12.834 58.666 9.08496 54.917C5.3361 51.168 5.33594 45.1341 5.33594 33.0664V30.9326C5.33594 18.8649 5.33597 12.831 9.08496 9.08203C12.834 5.33304 18.8679 5.33301 30.9355 5.33301H33.0693ZM46.8877 21.4951C47.3848 19.4959 46.1426 18.5851 44.8467 19.1738L16.4922 30.1709C14.5571 30.9564 14.5746 32.0458 16.1367 32.4922L23.416 34.8125L40.248 24.1191C41.0469 23.6373 41.7744 23.9046 41.1709 24.458L27.5352 36.8125L27.0381 44.3633C27.7658 44.3633 28.1035 44.0247 28.5117 43.6143L32.0449 40.168L39.3955 45.6309C40.7449 46.3807 41.7213 45.9878 42.0586 44.3633L46.8877 21.4951Z" fill="currentColor"/>
  </symbol>

    <symbol id="icon-max" viewBox="0 0 64 64">
    <path d="M33.0693 5.33301C45.1371 5.33301 51.1709 5.33317 54.9199 9.08203C58.6689 12.831 58.6689 18.8649 58.6689 30.9326V33.0664C58.6689 45.1343 58.6689 51.168 54.9199 54.917C51.1709 58.666 45.1372 58.666 33.0693 58.666H30.9355C18.8679 58.666 12.834 58.666 9.08496 54.917C5.3361 51.168 5.33594 45.1341 5.33594 33.0664V30.9326C5.33594 18.8649 5.33597 12.831 9.08496 9.08203C12.834 5.33304 18.8679 5.33301 30.9355 5.33301H33.0693Z" fill="currentColor"/>
<path fill-rule="evenodd" clip-rule="evenodd" d="M32.3446 47.9119C29.2001 47.9119 27.7397 47.4499 25.2077 45.5996C23.596 47.6809 18.5235 49.2991 18.3009 46.5237C18.3009 44.4456 17.8354 42.6932 17.323 40.7645C16.6966 38.4028 16 35.7757 16 31.956C15.9989 22.8498 23.4394 16 32.2604 16C41.0825 16 48 23.1839 48 32.0441C48 40.9053 40.8631 47.9119 32.3446 47.9119ZM32.4724 23.8738C28.1796 23.6481 24.8295 26.6373 24.0903 31.3177C23.4788 35.1933 24.5632 39.9157 25.491 40.1542C25.9278 40.2659 27.0494 39.3559 27.7397 38.6618C28.8752 39.401 30.179 39.9748 31.6277 40.051C36.0356 40.2821 39.9417 36.8201 40.1718 32.3954C40.4029 27.9718 36.8803 24.1058 32.4724 23.8738Z" fill="white"/>
  </symbol>

<symbol id="icon-arrow" viewBox="0 0 24 24">
  <path
    d="M7 17L17 7M17 7H8M17 7V16"
    fill="none"
    stroke="currentColor"
    stroke-width="1.5"
    stroke-linecap="butt"
    stroke-linejoin="round"
  />
</symbol>

<symbol id="icon-cross" viewBox="0 0 24 24">
 <path d="M0.353516 23.3535L23.3528 0.353516M23.3535 23.3535L0.354234 0.353518" stroke="currentColor" />
</symbol>

<symbol id="icon-phone" viewBox="0 0 26 26">
 <path d="M9.65275 5.14467C9.36645 4.19085 9.16982 3.21238 9.06542 2.222C8.96075 1.23467 8.09875 0.5 7.10609 0.5H2.50075C1.31609 0.5 0.404087 1.52333 0.508087 2.70267C1.55809 14.5887 11.0261 24.056 22.9121 25.1067C24.0921 25.2107 25.1148 24.302 25.1148 23.1173V19.0107C25.1148 17.512 24.3801 16.6533 23.3928 16.5487C22.4024 16.4445 21.4239 16.2481 20.4701 15.962C19.9045 15.7941 19.304 15.7824 18.7324 15.9284C18.1608 16.0743 17.6393 16.3722 17.2234 16.7907L15.2521 18.762C11.697 16.836 8.77875 13.9177 6.85275 10.3627L8.82409 8.39133C9.24263 7.9755 9.54074 7.45408 9.68676 6.88244C9.83278 6.3108 9.82059 5.71028 9.65275 5.14467Z" fill="none" stroke="currentColor" stroke-linecap="round" stroke-linejoin="round" />
</symbol>

<symbol id="icon-plus" viewBox="0 0 33 33">
<rect 
  x="0.5" 
  y="0.5" 
  width="32" 
  height="32" 
  rx="16" 
  fill="none"
  stroke="white" 
  stroke-opacity="0.5"
/>
<path d="M8.5 16.7642V16.2358H16.2358V8.5H16.7642V16.2358H24.5V16.7642H16.7642V24.5H16.2358V16.7642H8.5Z" fill="white"/>
</symbol>

<symbol id="icon-walking" viewBox="0 0 27 47">
  <path
    d="M2 41L8 33M19 41L15 33L10 27L12 16
       M12 8C12 9 13 10 14 10C15 10 16 9 16 8C16 7 15 6 14 6C13 6 12 7 12 8Z"
    stroke="#4F4744"
    stroke-width="1.5"
    stroke-linecap="round"
    stroke-linejoin="round"
    fill="none"
  />
  <path
    d="M0 24L4 18L12 16L17 22L23 24"
    stroke="#4F4744"
    stroke-width="1.5"
    stroke-linecap="round"
    stroke-linejoin="round"
    fill="none"
  />
</symbol>

<symbol id="icon-car" viewBox="0 0 65 26">
<path d="M59.2631 13.1428C60.2553 13.6837 61.007 14.1796 61.0822 14.9009C61.007 14.8708 60.9168 14.8408 60.8567 14.8107C60.5109 14.6604 60.12 14.4801 59.7141 14.4801C59.5638 14.4801 59.4134 14.5102 59.2781 14.5553C59.2481 14.5553 59.218 14.5853 59.1729 14.6003C59.1128 14.4801 59.0526 14.1796 59.0977 13.7889C59.1278 13.4734 59.203 13.248 59.2781 13.1428M61.2927 15.9527C61.5483 15.9527 61.7587 15.8475 61.9091 15.6522C62.0294 15.4869 62.0745 15.2915 62.0745 15.0211C62.0745 13.5335 60.6462 12.7821 59.5036 12.1661C59.4285 12.136 59.3533 12.106 59.2781 12.106C58.4663 12.106 58.1055 13.1127 58.1055 14.0293C58.1055 14.9459 58.5114 15.6221 59.1278 15.6221C59.2932 15.6221 59.4736 15.5771 59.6389 15.4719C59.8194 15.4418 60.1651 15.5771 60.4508 15.7123C60.7364 15.8325 61.0221 15.9677 61.2927 15.9677" fill="#4F4744"/>
<path d="M6.74784 20.6855C6.97336 20.6855 7.1688 20.5352 7.22893 20.3098C7.28907 20.0394 7.13873 19.7839 6.86812 19.7088L1.26041 18.3263C1.04994 13.1573 3.03443 8.81465 4.49274 8.48407C4.64308 8.45402 4.76335 8.34883 4.82348 8.21359C4.88362 8.07836 4.88362 7.91306 4.80845 7.77783L4.23716 6.72598C8.95785 6.45551 12.6562 5.41869 15.5277 3.55541C18.4443 2.26315 20.519 2.03775 29.1636 2.03775C35.2524 2.03775 36.0342 2.50357 41.1157 5.5389C42.3034 6.24514 43.8068 7.13169 45.641 8.18354C48.9635 9.83644 51.3238 10.1971 54.3006 10.6479C54.7366 10.708 55.1876 10.7831 55.6687 10.8582L61.2463 11.7298C61.562 12.6163 61.9529 13.4879 62.3137 14.2542C62.9001 15.5164 63.5014 16.8087 63.2308 17.3346C63.2007 17.3947 63.1105 17.575 62.6144 17.6952L59.8482 18.1761C59.5775 18.2212 59.3971 18.4766 59.4573 18.7471C59.5024 19.0176 59.7579 19.1979 60.0286 19.1378L62.8099 18.6419C63.4563 18.5067 63.8923 18.2061 64.1028 17.7704C64.5688 16.8237 63.9675 15.5014 63.1857 13.8335C62.8099 13.007 62.3739 12.0754 62.0582 11.1287C61.998 10.9484 61.8477 10.8282 61.6673 10.7981L55.804 9.88152C55.3229 9.80639 54.8719 9.73126 54.4359 9.67115C51.5343 9.23539 49.2491 8.88978 46.092 7.31201C44.2879 6.29022 42.7995 5.40366 41.6118 4.69742C36.4251 1.61701 35.493 1.06104 29.1486 1.06104C20.2935 1.06104 18.1888 1.30146 15.0917 2.66886C15.0617 2.66886 15.0466 2.69891 15.0166 2.69891C12.13 4.57721 8.32642 5.58398 3.39525 5.77932C3.22987 5.77932 3.0645 5.8845 2.98933 6.01974C2.91416 6.17 2.89912 6.35032 2.98933 6.50059L3.6809 7.7628C1.59116 8.99497 -0.00244921 13.9687 0.283198 18.7471C0.283198 18.9575 0.448573 19.1378 0.659049 19.1979L6.62757 20.6705C6.62757 20.6705 6.70274 20.6705 6.74784 20.6705" fill="#4F4744"/>
<path d="M21.5274 20.6856H45.1008C45.3714 20.6856 45.5969 20.4602 45.5969 20.1897C45.5969 19.9192 45.3714 19.6938 45.1008 19.6938H21.5274C21.2568 19.6938 21.0312 19.9192 21.0312 20.1897C21.0312 20.4602 21.2568 20.6856 21.5274 20.6856Z" fill="#4F4744"/>
<path d="M5.30343 9.88164C5.27336 10.0169 5.22826 10.2122 5.19819 10.3475C5.06288 10.8884 4.88247 11.5646 5.10798 12.1506C5.10798 12.1807 5.13805 12.2107 5.15309 12.2408C5.22826 12.346 5.21322 12.391 5.21322 12.391C5.18315 12.4511 4.91254 12.6014 4.44649 12.6014C4.02553 12.6014 3.75492 12.4812 3.67975 12.391C4.13077 11.0837 4.56676 10.0018 5.30343 9.88164ZM4.46152 13.5781C5.06288 13.5781 5.79955 13.3828 6.10023 12.8418C6.20547 12.6465 6.32574 12.2558 6.02506 11.7449C5.93486 11.4594 6.05513 10.9786 6.16037 10.5879C6.29567 10.062 6.43098 9.55106 6.14533 9.19042C6.02506 9.04016 5.78452 8.84482 5.30343 8.8899C3.80002 9.02514 3.19866 10.7982 2.71757 12.2258C2.70253 12.2859 2.6875 12.361 2.6875 12.4211C2.74764 13.1123 3.46927 13.5781 4.46152 13.5781Z" fill="#4F4744"/>
<path d="M45.4169 10.0013C45.6725 10.0013 45.898 9.79092 45.913 9.53547C45.913 9.26499 45.7176 9.0396 45.4469 9.02457L42.8761 8.90436L41.3727 6.66543C41.2524 6.48511 41.0269 6.40998 40.8164 6.47008C40.606 6.53019 40.4707 6.72553 40.4707 6.9359V8.78415L17.3783 7.70225C17.1077 7.68722 16.8822 7.89759 16.8672 8.16807C16.8672 8.43854 17.0626 8.66394 17.3332 8.67896L40.9518 9.79092C41.0871 9.79092 41.2224 9.74584 41.3126 9.65568C41.4028 9.56552 41.4629 9.43028 41.4629 9.29504V8.5287L42.2146 9.64065C42.3048 9.77589 42.4401 9.85102 42.6055 9.85102L45.4319 9.98626H45.462" fill="#4F4744"/>
<path d="M52.4672 14.3151C55.1282 14.3151 57.2931 16.4789 57.2931 19.1386C57.2931 21.7982 55.1282 23.962 52.4672 23.962C49.8062 23.962 47.6413 21.7982 47.6413 19.1386C47.6413 16.4789 49.8062 14.3151 52.4672 14.3151ZM52.4672 24.9387C55.6695 24.9387 58.2704 22.3392 58.2704 19.1386C58.2704 15.9379 55.6695 13.3384 52.4672 13.3384C49.265 13.3384 46.6641 15.9379 46.6641 19.1386C46.6641 22.3392 49.265 24.9387 52.4672 24.9387Z" fill="#4F4744"/>
<path d="M14.1586 14.3151C16.8196 14.3151 18.9846 16.4789 18.9846 19.1386C18.9846 21.7982 16.8196 23.962 14.1586 23.962C11.4976 23.962 9.33268 21.7982 9.33268 19.1386C9.33268 16.4789 11.4976 14.3151 14.1586 14.3151ZM14.1586 24.9387C17.3609 24.9387 19.9618 22.3392 19.9618 19.1386C19.9618 15.9379 17.3609 13.3384 14.1586 13.3384C10.9564 13.3384 8.35547 15.9379 8.35547 19.1386C8.35547 22.3392 10.9564 24.9387 14.1586 24.9387Z" fill="#4F4744"/>
<path d="M59.2631 13.1428C60.2553 13.6837 61.007 14.1796 61.0822 14.9009C61.007 14.8708 60.9168 14.8408 60.8567 14.8107C60.5109 14.6604 60.12 14.4801 59.7141 14.4801C59.5638 14.4801 59.4134 14.5102 59.2781 14.5553C59.2481 14.5553 59.218 14.5853 59.1729 14.6003C59.1127 14.4801 59.0526 14.1796 59.0977 13.7889C59.1278 13.4734 59.203 13.248 59.2781 13.1428M61.2927 15.9527C61.5483 15.9527 61.7587 15.8475 61.9091 15.6522C62.0294 15.4869 62.0745 15.2916 62.0745 15.0211C62.0745 13.5335 60.6462 12.7821 59.5036 12.1661C59.4285 12.136 59.3533 12.106 59.2781 12.106C58.4663 12.106 58.1055 13.1127 58.1055 14.0293C58.1055 14.9459 58.5114 15.6221 59.1278 15.6221C59.2932 15.6221 59.4736 15.5771 59.6389 15.4719C59.8194 15.4418 60.1651 15.5771 60.4508 15.7123C60.7364 15.8325 61.0221 15.9677 61.2927 15.9677M6.74784 20.6855C6.97336 20.6855 7.1688 20.5352 7.22893 20.3098C7.28907 20.0394 7.13873 19.7839 6.86812 19.7088L1.26041 18.3263C1.04994 13.1573 3.03443 8.81465 4.49274 8.48407C4.64308 8.45402 4.76335 8.34883 4.82348 8.21359C4.88362 8.07836 4.88362 7.91307 4.80845 7.77783L4.23716 6.72598C8.95785 6.45551 12.6562 5.41869 15.5277 3.55541C18.4443 2.26315 20.519 2.03775 29.1636 2.03775C35.2524 2.03775 36.0342 2.50357 41.1157 5.5389C42.3034 6.24514 43.8068 7.13169 45.641 8.18354C48.9635 9.83644 51.3238 10.1971 54.3006 10.6479C54.7366 10.708 55.1876 10.7831 55.6687 10.8582L61.2463 11.7298C61.562 12.6163 61.9529 13.4879 62.3137 14.2542C62.9001 15.5164 63.5014 16.8087 63.2308 17.3346C63.2007 17.3947 63.1105 17.575 62.6144 17.6952L59.8482 18.1761C59.5775 18.2212 59.3971 18.4766 59.4573 18.7471C59.5024 19.0176 59.7579 19.1979 60.0286 19.1378L62.8099 18.6419C63.4563 18.5067 63.8923 18.2061 64.1028 17.7704C64.5689 16.8237 63.9675 15.5014 63.1857 13.8335C62.8099 13.007 62.3739 12.0754 62.0582 11.1287C61.998 10.9484 61.8477 10.8282 61.6673 10.7981L55.804 9.88152C55.3229 9.80639 54.8719 9.73126 54.4359 9.67115C51.5343 9.23539 49.2491 8.88978 46.092 7.31201C44.2879 6.29022 42.7995 5.40366 41.6118 4.69742C36.4251 1.61701 35.493 1.06104 29.1486 1.06104C20.2935 1.06104 18.1888 1.30146 15.0917 2.66886C15.0617 2.66886 15.0466 2.69891 15.0166 2.69891C12.13 4.57721 8.32642 5.58398 3.39525 5.77932C3.22987 5.77932 3.0645 5.8845 2.98933 6.01974C2.91416 6.17 2.89912 6.35032 2.98933 6.50059L3.6809 7.7628C1.59116 8.99496 -0.00244922 13.9687 0.283198 18.7471C0.283198 18.9575 0.448573 19.1378 0.659049 19.1979L6.62757 20.6705C6.62757 20.6705 6.70274 20.6705 6.74784 20.6705M45.4169 10.0013C45.6725 10.0013 45.898 9.79092 45.913 9.53547C45.913 9.26499 45.7176 9.0396 45.4469 9.02457L42.8761 8.90436L41.3727 6.66543C41.2524 6.48511 41.0269 6.40998 40.8164 6.47008C40.606 6.53019 40.4707 6.72553 40.4707 6.9359V8.78415L17.3783 7.70225C17.1077 7.68722 16.8822 7.89759 16.8672 8.16807C16.8672 8.43854 17.0626 8.66394 17.3332 8.67896L40.9518 9.79092C41.0871 9.79092 41.2224 9.74584 41.3126 9.65568C41.4028 9.56552 41.4629 9.43028 41.4629 9.29504V8.5287L42.2146 9.64065C42.3048 9.77589 42.4401 9.85102 42.6055 9.85102L45.4319 9.98626H45.462M21.5274 20.6856H45.1008C45.3714 20.6856 45.5969 20.4602 45.5969 20.1897C45.5969 19.9192 45.3714 19.6938 45.1008 19.6938H21.5274C21.2568 19.6938 21.0312 19.9192 21.0312 20.1897C21.0312 20.4602 21.2568 20.6856 21.5274 20.6856ZM5.30343 9.88164C5.27336 10.0169 5.22826 10.2122 5.19819 10.3475C5.06288 10.8884 4.88247 11.5646 5.10798 12.1506C5.10798 12.1807 5.13805 12.2107 5.15309 12.2408C5.22826 12.346 5.21322 12.391 5.21322 12.391C5.18315 12.4512 4.91254 12.6014 4.44649 12.6014C4.02553 12.6014 3.75492 12.4812 3.67975 12.391C4.13077 11.0837 4.56676 10.0018 5.30343 9.88164ZM4.46152 13.5781C5.06288 13.5781 5.79955 13.3828 6.10023 12.8418C6.20547 12.6465 6.32574 12.2558 6.02506 11.7449C5.93486 11.4594 6.05513 10.9786 6.16037 10.5879C6.29567 10.062 6.43098 9.55106 6.14533 9.19042C6.02506 9.04016 5.78452 8.84482 5.30343 8.8899C3.80002 9.02513 3.19866 10.7982 2.71757 12.2258C2.70253 12.2859 2.6875 12.361 2.6875 12.4211C2.74764 13.1123 3.46927 13.5781 4.46152 13.5781ZM52.4672 14.3151C55.1282 14.3151 57.2931 16.4789 57.2931 19.1386C57.2931 21.7982 55.1282 23.962 52.4672 23.962C49.8062 23.962 47.6413 21.7982 47.6413 19.1386C47.6413 16.4789 49.8062 14.3151 52.4672 14.3151ZM52.4672 24.9387C55.6695 24.9387 58.2704 22.3392 58.2704 19.1386C58.2704 15.9379 55.6695 13.3384 52.4672 13.3384C49.265 13.3384 46.6641 15.9379 46.6641 19.1386C46.6641 22.3392 49.265 24.9387 52.4672 24.9387ZM14.1586 14.3151C16.8196 14.3151 18.9846 16.4789 18.9846 19.1386C18.9846 21.7982 16.8196 23.962 14.1586 23.962C11.4976 23.962 9.33268 21.7982 9.33268 19.1386C9.33268 16.4789 11.4976 14.3151 14.1586 14.3151ZM14.1586 24.9387C17.3609 24.9387 19.9618 22.3392 19.9618 19.1386C19.9618 15.9379 17.3609 13.3384 14.1586 13.3384C10.9564 13.3384 8.35547 15.9379 8.35547 19.1386C8.35547 22.3392 10.9564 24.9387 14.1586 24.9387Z" stroke="#4F4744" stroke-width="0.5"/>
</symbol>

<symbol id="icon-arrow-small" viewBox="0 0 9 15">
  <path d="M8.707 8.071C9.098 7.681 9.098 7.047 8.707 6.657L2.343 0.293C1.953 -0.098 1.319 -0.098 0.929 0.293C0.538 0.683 0.538 1.317 0.929 1.707L6.586 7.364L0.929 13.021C0.538 13.411 0.538 14.045 0.929 14.435C1.319 14.826 1.953 14.826 2.343 14.435L8.707 8.071Z" fill="#4F4744"/>
</symbol>

<symbol id="icon-round-arrows" viewBox="0 0 26 26">
  <path
    d="M24 7C22 3 18 1 13 1C7 1 2 5 1 12"
    stroke="black"
    stroke-width="1.5"
    stroke-linecap="round"
    stroke-linejoin="round"
    fill="none"
  />
  <path
    d="M19 8H24V2"
    stroke="black"
    stroke-width="1.5"
    stroke-linecap="round"
    stroke-linejoin="round"
    fill="none"
  />
  <path
    d="M2 18C4 22 8 24 13 24C19 24 24 20 25 14"
    stroke="black"
    stroke-width="1.5"
    stroke-linecap="round"
    stroke-linejoin="round"
    fill="none"
  />
  <path
    d="M7 18H1V24"
    stroke="black"
    stroke-width="1.5"
    stroke-linecap="round"
    stroke-linejoin="round"
    fill="none"
  />
</symbol>

<symbol id="icon-loupe" viewBox="0 0 25 25">
  <circle
    cx="11"
    cy="11"
    r="10"
    stroke="currentColor"
    stroke-width="1"
    fill="none"
  />
  <path
    d="M18 18L24 24"
    stroke="currentColor"
    stroke-width="1"
    stroke-linecap="round"
  />
  <path
    d="M11 7V15M7 11H15"
    stroke="currentColor"
    stroke-width="1"
    stroke-linecap="round"
  />
</symbol>

<symbol id="icon-zoom-out" viewBox="0 0 19 19">
  <path
    d="M18.5 18.5L14.1572 14.1572M14.1572 14.1572C14.9001 13.4143 15.4894 12.5324 15.8914 11.5618C16.2935 10.5911 16.5004 9.55081 16.5004 8.50021C16.5004 7.4496 16.2935 6.40929 15.8914 5.43866C15.4894 4.46803 14.9001 3.58609 14.1572 2.84321C13.4143 2.10032 12.5324 1.51103 11.5618 1.10898C10.5911 0.706931 9.55081 0.5 8.50021 0.5C7.4496 0.5 6.40929 0.706931 5.43866 1.10898C4.46803 1.51103 3.58609 2.10032 2.84321 2.84321C1.34288 4.34354 0.5 6.37842 0.5 8.50021C0.5 10.622 1.34288 12.6569 2.84321 14.1572C4.34354 15.6575 6.37842 16.5004 8.50021 16.5004C10.622 16.5004 12.6569 15.6575 14.1572 14.1572ZM5.5 8.5H11.5"
    stroke="currentColor"
    stroke-width="1"
    stroke-linecap="round"
    stroke-linejoin="round"
    fill="none"
  />
</symbol>

<symbol id="icon-hand-scroll" viewBox="0 0 19 26">
  <path stroke-width="1" d="M3.86 11.14C3.86 10.2121 3.10792 9.46 2.18 9.46C1.25208 9.46 0.5 10.2121 0.5 11.14V16.74C0.5 21.379 4.26096 25.14 8.9 25.14C13.539 25.14 17.3 21.379 17.3 16.74V12.26C17.3 11.3321 16.5479 10.58 15.62 10.58C14.6921 10.58 13.94 11.3321 13.94 12.26V11.14C13.94 10.2121 13.1879 9.46 12.26 9.46C11.3321 9.46 10.58 10.2121 10.58 11.14V10.02C10.58 9.09208 9.82792 8.34 8.9 8.34C7.97208 8.34 7.22 9.09208 7.22 10.02V2.18C7.22 1.25208 6.46792 0.5 5.54 0.5C4.61208 0.5 3.86 1.25208 3.86 2.18V15.06V11.14Z" stroke="currentColor" stroke-miterlimit="10" stroke-linecap="round" stroke-linejoin="round" />
  <path stroke-width="1" d="M17.8634 3.30078H10.0234" stroke="currentColor" stroke-miterlimit="10" stroke-linecap="round" stroke-linejoin="round" />
  <path stroke-width="1" d="M16.1836 1.62012L17.8636 3.30012L16.1836 4.98012" stroke="currentColor" stroke-miterlimit="10" stroke-linecap="round" stroke-linejoin="round" />
  <path stroke-width="1" d="M11.7034 1.62012L10.0234 3.30012L11.7034 4.98012" stroke="currentColor" stroke-miterlimit="10" stroke-linecap="round" stroke-linejoin="round" />
</symbol>


</svg>