<svg xmlns="http://www.w3.org/2000/svg">
  <symbol id="icon-slider-button" viewBox="0 0 80 80">
    <path d="M48.775 78.0089C19.525 83.3875 1 61.33 1 40M48.775 78.0089C62.3133 74.896 73.1601 64.7355 77.2466 51.5974C78.3861 47.9338 79 44.0386 79 40C79 35.6038 78.2726 31.3774 76.9316 27.4347C72.6227 14.767 61.979 5.02713 48.775 1.99115M48.775 78.0089C45.9546 78.6574 43.0173 79 40 79C18.4609 79 1 61.5391 1 40M1 40C1 18.67 18.55 -2.9 48.775 1.99115M1 40C1 18.4609 18.4609 1 40 1C43.0173 1 45.9546 1.34265 48.775 1.99115" fill="none" stroke="#BBADA1"/>
    <path d="M44 52L32 40L44 28" fill="none" stroke="#4F4744" stroke-width="1.5"/>
  </symbol>

<symbol id="icon-slider-button-hover" viewBox="0 0 80 80">
  <path d="M48.775 78.0089C19.525 83.3875 1 61.33 1 40
           M48.775 78.0089C62.3133 74.896 73.1601 64.7355 77.2466 51.5974
           C78.3861 47.9338 79 44.0386 79 40
           C79 35.6038 78.2726 31.3774 76.9316 27.4347
           C72.6227 14.767 61.979 5.02713 48.775 1.99115
           M48.775 78.0089C45.9546 78.6574 43.0173 79 40 79
           C18.4609 79 1 61.5391 1 40
           M1 40C1 18.67 18.55 -2.9 48.775 1.99115
           M1 40C1 18.4609 18.4609 1 40 1
           C43.0173 1 45.9546 1.34265 48.775 1.99115"
        stroke="#BBADA1" fill="none"/>
  <circle cx="40" cy="40" r="40" fill="black" fill-opacity="0.4"/>
  <path d="M44 28L32 40L44 52" stroke="white" stroke-width="1.5" fill="none"/>
</symbol>

  <symbol id="icon-vk" viewBox="0 0 64 64">
 <path fill-rule="evenodd" clip-rule="evenodd" d="M9.08302 9.08228C5.33398 12.8313 5.33398 18.8653 5.33398 30.9333V33.0666C5.33398 45.1345 5.33398 51.1685 9.08302 54.9176C12.832 58.6666 18.866 58.6666 30.9339 58.6666H30.934H33.0673H33.0673C45.1353 58.6666 51.1693 58.6666 54.9183 54.9176C58.6673 51.1685 58.6673 45.1346 58.6673 33.0666V33.0666V30.9332V30.9332C58.6673 18.8653 58.6673 12.8313 54.9183 9.08228C51.1693 5.33325 45.1353 5.33325 33.0673 5.33325H30.934C18.866 5.33325 12.8321 5.33325 9.08302 9.08228ZM14.334 21.5556C14.6229 35.4223 21.5561 43.7556 33.7117 43.7556L34.4007 43.7556V35.8222C38.8674 36.2667 42.2449 39.5333 43.6005 43.7556H49.9118C48.1785 37.4445 43.6227 33.9555 40.7782 32.6222C43.6227 30.9778 47.6227 26.9778 48.5782 21.5556H42.8447C41.6003 25.9556 37.9118 29.9555 34.4007 30.3333V21.5556H28.6672V36.9333C25.1117 36.0444 20.6229 31.7334 20.4229 21.5556L14.334 21.5556Z" fill="currentColor"/>
 </symbol>

    <symbol id="icon-tg" viewBox="0 0 64 64">
    <path d="M33.0693 5.33301C45.1371 5.33301 51.1709 5.33317 54.9199 9.08203C58.6689 12.831 58.6689 18.8649 58.6689 30.9326V33.0664C58.6689 45.1343 58.6689 51.168 54.9199 54.917C51.1709 58.666 45.1372 58.666 33.0693 58.666H30.9355C18.8679 58.666 12.834 58.666 9.08496 54.917C5.3361 51.168 5.33594 45.1341 5.33594 33.0664V30.9326C5.33594 18.8649 5.33597 12.831 9.08496 9.08203C12.834 5.33304 18.8679 5.33301 30.9355 5.33301H33.0693ZM46.8877 21.4951C47.3848 19.4959 46.1426 18.5851 44.8467 19.1738L16.4922 30.1709C14.5571 30.9564 14.5746 32.0458 16.1367 32.4922L23.416 34.8125L40.248 24.1191C41.0469 23.6373 41.7744 23.9046 41.1709 24.458L27.5352 36.8125L27.0381 44.3633C27.7658 44.3633 28.1035 44.0247 28.5117 43.6143L32.0449 40.168L39.3955 45.6309C40.7449 46.3807 41.7213 45.9878 42.0586 44.3633L46.8877 21.4951Z" fill="currentColor"/>
  </symbol>

    <symbol id="icon-max" viewBox="0 0 64 64">
    <path d="M33.0693 5.33301C45.1371 5.33301 51.1709 5.33317 54.9199 9.08203C58.6689 12.831 58.6689 18.8649 58.6689 30.9326V33.0664C58.6689 45.1343 58.6689 51.168 54.9199 54.917C51.1709 58.666 45.1372 58.666 33.0693 58.666H30.9355C18.8679 58.666 12.834 58.666 9.08496 54.917C5.3361 51.168 5.33594 45.1341 5.33594 33.0664V30.9326C5.33594 18.8649 5.33597 12.831 9.08496 9.08203C12.834 5.33304 18.8679 5.33301 30.9355 5.33301H33.0693Z" fill="currentColor"/>
<path fill-rule="evenodd" clip-rule="evenodd" d="M32.3446 47.9119C29.2001 47.9119 27.7397 47.4499 25.2077 45.5996C23.596 47.6809 18.5235 49.2991 18.3009 46.5237C18.3009 44.4456 17.8354 42.6932 17.323 40.7645C16.6966 38.4028 16 35.7757 16 31.956C15.9989 22.8498 23.4394 16 32.2604 16C41.0825 16 48 23.1839 48 32.0441C48 40.9053 40.8631 47.9119 32.3446 47.9119ZM32.4724 23.8738C28.1796 23.6481 24.8295 26.6373 24.0903 31.3177C23.4788 35.1933 24.5632 39.9157 25.491 40.1542C25.9278 40.2659 27.0494 39.3559 27.7397 38.6618C28.8752 39.401 30.179 39.9748 31.6277 40.051C36.0356 40.2821 39.9417 36.8201 40.1718 32.3954C40.4029 27.9718 36.8803 24.1058 32.4724 23.8738Z" fill="white"/>
  </symbol>

<symbol id="icon-arrow" viewBox="0 0 24 24">
  <path
    d="M7 17L17 7M17 7H8M17 7V16"
    fill="none"
    stroke="currentColor"
    stroke-width="1.5"
    stroke-linecap="butt"
    stroke-linejoin="round"
  />
</symbol>

<symbol id="icon-cross" viewBox="0 0 24 24">
 <path d="M0.353516 23.3535L23.3528 0.353516M23.3535 23.3535L0.354234 0.353518" stroke="currentColor" />
</symbol>

<symbol id="icon-phone" viewBox="0 0 26 26">
 <path d="M9.65275 5.14467C9.36645 4.19085 9.16982 3.21238 9.06542 2.222C8.96075 1.23467 8.09875 0.5 7.10609 0.5H2.50075C1.31609 0.5 0.404087 1.52333 0.508087 2.70267C1.55809 14.5887 11.0261 24.056 22.9121 25.1067C24.0921 25.2107 25.1148 24.302 25.1148 23.1173V19.0107C25.1148 17.512 24.3801 16.6533 23.3928 16.5487C22.4024 16.4445 21.4239 16.2481 20.4701 15.962C19.9045 15.7941 19.304 15.7824 18.7324 15.9284C18.1608 16.0743 17.6393 16.3722 17.2234 16.7907L15.2521 18.762C11.697 16.836 8.77875 13.9177 6.85275 10.3627L8.82409 8.39133C9.24263 7.9755 9.54074 7.45408 9.68676 6.88244C9.83278 6.3108 9.82059 5.71028 9.65275 5.14467Z" fill="none" stroke="currentColor" stroke-linecap="round" stroke-linejoin="round" />
</symbol>

<symbol id="icon-plus" viewBox="0 0 33 33">
<rect 
  x="0.5" 
  y="0.5" 
  width="32" 
  height="32" 
  rx="16" 
  fill="none"
  stroke="white" 
  stroke-opacity="0.5"
/>
<path d="M8.5 16.7642V16.2358H16.2358V8.5H16.7642V16.2358H24.5V16.7642H16.7642V24.5H16.2358V16.7642H8.5Z" fill="white"/>
</symbol>

</svg>