<svg width="64" height="64" viewBox="0 0 64 64" fill="none" xmlns="http://www.w3.org/2000/svg">
<path d="M33.0693 5.33301C45.1371 5.33301 51.1709 5.33317 54.9199 9.08203C58.6689 12.831 58.6689 18.8649 58.6689 30.9326V33.0664C58.6689 45.1343 58.6689 51.168 54.9199 54.917C51.1709 58.666 45.1372 58.666 33.0693 58.666H30.9355C18.8679 58.666 12.834 58.666 9.08496 54.917C5.3361 51.168 5.33594 45.1341 5.33594 33.0664V30.9326C5.33594 18.8649 5.33597 12.831 9.08496 9.08203C12.834 5.33304 18.8679 5.33301 30.9355 5.33301H33.0693ZM46.8877 21.4951C47.3848 19.4959 46.1426 18.5851 44.8467 19.1738L16.4922 30.1709C14.5571 30.9564 14.5746 32.0458 16.1367 32.4922L23.416 34.8125L40.248 24.1191C41.0469 23.6373 41.7744 23.9046 41.1709 24.458L27.5352 36.8125L27.0381 44.3633C27.7658 44.3633 28.1035 44.0247 28.5117 43.6143L32.0449 40.168L39.3955 45.6309C40.7449 46.3807 41.7213 45.9878 42.0586 44.3633L46.8877 21.4951Z" fill="#8A8077"/>
</svg>
