<svg width="54" height="54" viewBox="0 0 54 54" fill="none" xmlns="http://www.w3.org/2000/svg">
<path fill-rule="evenodd" clip-rule="evenodd" d="M3.74903 3.74903C0 7.49807 0 13.532 0 25.6L0 27.7333C0 39.8013 0 45.8353 3.74903 49.5843C7.49806 53.3333 13.532 53.3333 25.6 53.3333H25.6H27.7333H27.7334C39.8013 53.3333 45.8353 53.3333 49.5843 49.5843C53.3333 45.8353 53.3333 39.8013 53.3333 27.7334V27.7333V25.6V25.6C53.3333 13.532 53.3333 7.49806 49.5843 3.74903C45.8353 0 39.8013 0 27.7333 0L25.6 0C13.532 0 7.49807 0 3.74903 3.74903ZM9 16.2223C9.28889 30.089 16.2222 38.4223 28.3777 38.4223L29.0667 38.4223V30.489C33.5334 30.9334 36.9109 34.2001 38.2665 38.4223H44.5778C42.8445 32.1112 38.2887 28.6223 35.4442 27.289C38.2887 25.6445 42.2887 21.6446 43.2442 16.2223H37.5107C36.2663 20.6223 32.5778 24.6223 29.0667 25.0001V16.2223H23.3332V31.6001C19.7777 30.7112 15.2889 26.4001 15.0889 16.2223L9 16.2223Z" fill="#8A8077"/>
</svg>
