<svg width="24" height="37" viewBox="0 0 24 37" fill="none" xmlns="http://www.w3.org/2000/svg">
<path d="M1.71094 36L7.58594 28.1667M19.3359 36L15.4193 28.1667L9.54427 22.2917L11.5026 10.5417M11.5026 2.70833C11.5026 3.22772 11.7089 3.72583 12.0762 4.09308C12.4434 4.46034 12.9416 4.66667 13.4609 4.66667C13.9803 4.66667 14.4784 4.46034 14.8457 4.09308C15.2129 3.72583 15.4193 3.22772 15.4193 2.70833C15.4193 2.18895 15.2129 1.69084 14.8457 1.32358C14.4784 0.956324 13.9803 0.75 13.4609 0.75C12.9416 0.75 12.4434 0.956324 12.0762 1.32358C11.7089 1.69084 11.5026 2.18895 11.5026 2.70833Z" stroke="#4F4744" stroke-width="1.5" stroke-linecap="round" stroke-linejoin="round"/>
<path d="M-0.25 18.375L3.66667 12.5L11.5 10.5416L17.375 16.4166L23.25 18.375" stroke="#4F4744" stroke-width="1.5" stroke-linecap="round" stroke-linejoin="round"/>
</svg>
