<svg width="271" height="97" viewBox="0 0 271 97" fill="none" xmlns="http://www.w3.org/2000/svg">
<path d="M191.11 0H194.994V10.7947L194.971 27.239L182.709 27.2696V10.55L182.717 8.28713C182.717 3.76896 186.6 0 191.11 0Z" fill="#3C3634"/>
<path d="M110.686 17.3457H117.966V73.3603H103.926V24.2185C103.926 20.5184 106.986 17.3457 110.679 17.3457" fill="#3C3634"/>
<path d="M93.5645 17.3457H86.2852V73.3603H100.325V24.2185C100.325 20.5184 97.2652 17.3457 93.5721 17.3457" fill="#3C3634"/>
<path d="M23.5397 28.4785C29.1938 28.4785 32.0704 30.0228 32.3756 33.1113C32.3756 36.0929 29.3922 37.8436 23.5397 38.5698C9.76686 39.9077 0.312845 43.4091 0 56.4896C0 68.5381 9.04198 74.6158 22.0975 73.5837C36.7936 72.5517 45.8432 65.8623 45.8432 50.8247V32.2857C45.538 22.1943 37.9305 17.248 22.9216 17.248C10.3849 17.248 3.28869 22.1943 1.64816 32.2857H15.3141C16.0314 29.7093 18.702 28.4708 23.5397 28.4708M20.3502 62.4527C16.0314 62.4527 13.7728 60.3962 13.4676 56.0691C13.4676 52.0555 16.245 49.4792 21.6931 48.4471C25.6991 47.6215 29.3998 46.49 32.5893 45.1521V50.1978C32.5893 57.9192 27.9653 62.4527 20.3578 62.4527" fill="#3C3634"/>
<path d="M39.4023 73.2997H32.5273V51.3281H45.7737V66.8168C45.7737 70.3106 42.8894 73.2997 39.4023 73.2997Z" fill="#3C3634"/>
<path d="M248.696 28.4785C254.35 28.4785 257.227 30.0228 257.532 33.1113C257.532 36.0929 254.556 37.8436 248.696 38.5698C234.923 39.9077 225.469 43.4091 225.156 56.4896C225.156 68.5381 234.198 74.6158 247.254 73.5837C261.95 72.5517 270.999 65.8623 270.999 50.8247V32.2857C270.694 22.1943 263.087 17.248 248.078 17.248C235.541 17.248 228.445 22.1943 226.804 32.2857H240.478C241.195 29.7093 243.866 28.4708 248.704 28.4708M245.514 62.4527C241.195 62.4527 238.937 60.3962 238.624 56.0691C238.624 52.0555 241.401 49.4792 246.849 48.4471C250.855 47.6215 254.556 46.49 257.746 45.1521V50.1978C257.746 57.9192 253.122 62.4527 245.514 62.4527Z" fill="#3C3634"/>
<path d="M264.551 73.2997H257.676V51.3281H270.922V66.8168C270.922 70.3106 268.03 73.2997 264.551 73.2997Z" fill="#3C3634"/>
<path d="M117.989 62.5048H128.511C129.129 62.5048 129.816 62.4742 130.571 62.4054C131.327 62.3366 132.082 62.199 132.838 61.9925C134.28 61.5797 135.554 60.6623 136.653 59.2556C137.751 57.8413 138.301 56.2435 138.301 54.447C138.301 52.4822 137.736 50.7927 136.599 49.4013C135.462 48.0023 134.142 47.1078 132.624 46.695C131.899 46.4886 131.182 46.351 130.457 46.2822C129.732 46.2133 129.083 46.1751 128.496 46.1751H117.974V62.5048H117.989ZM103.964 73.3529V31.4509H117.989V35.3193H126.962C128.511 35.3193 130.312 35.3575 132.38 35.4263C134.44 35.4951 136.141 35.6709 137.484 35.9462C140.75 36.6724 143.505 37.8268 145.733 39.4093C147.961 40.9918 149.67 43.0407 150.822 45.5253C151.959 48.0252 152.539 50.9991 152.539 54.447C152.539 59.4085 151.25 63.3839 148.709 66.4037C146.145 69.4158 142.437 71.5029 137.584 72.642C136.241 72.9554 134.524 73.1542 132.425 73.2306C130.327 73.3147 128.503 73.3682 126.962 73.3682H103.957L103.964 73.3529ZM46.1719 73.3529V61.6714C48.2016 62.0537 49.7658 62.0155 50.8645 61.5874C51.9633 61.1592 52.7874 60.2954 53.3749 59.0034C53.9396 57.7267 54.4203 55.953 54.84 53.7131C55.3893 50.7468 55.8853 47.2913 56.3203 43.3236C56.7476 39.3635 57.1138 35.1587 57.419 30.7323C57.7319 26.3059 58.0066 21.91 58.2431 17.5371H93.4649L86.2999 30.6635H70.5204C70.383 32.4524 70.2075 34.593 69.9862 37.07C69.765 39.5469 69.5208 42.1309 69.2613 44.7837C69.0019 47.4518 68.712 50.0052 68.3991 52.4287C68.0939 54.8598 67.7658 56.9392 67.4224 58.667C66.5984 63.0399 65.3775 66.4878 63.7599 69.003C62.1422 71.5182 59.9218 73.1389 57.1062 73.8422C54.2906 74.5456 50.6433 74.3774 46.1719 73.3453" fill="#3C3634"/>
<path d="M195.108 61.7792C197.756 62.2302 200.022 62.1385 201.914 61.5192C203.807 60.9 205.333 59.845 206.538 58.3695C207.706 56.8864 208.583 55.044 209.133 52.8422C209.682 50.6405 209.957 48.1711 209.957 45.4495C209.957 42.7279 209.697 40.228 209.186 38.0263C208.667 35.8398 207.843 34.0127 206.714 32.5296C205.577 31.0464 204.051 29.9991 202.159 29.3951C200.251 28.7912 197.893 28.7377 195.108 29.2269V61.7792ZM182.732 61.7792V29.2269C179.947 28.7453 177.589 28.8141 175.696 29.4486C173.789 30.0832 172.255 31.1535 171.126 32.6519C169.997 34.1503 169.165 35.9927 168.654 38.1792C168.135 40.3809 167.883 42.7967 167.883 45.4495C167.883 48.1023 168.158 50.5105 168.707 52.7046C169.256 54.8911 170.134 56.7488 171.324 58.2701C172.507 59.7838 174.041 60.8541 175.933 61.4887C177.825 62.1232 180.092 62.2302 182.739 61.7792M182.739 96.6096V74.2863C177.306 75.1502 172.393 74.5615 167.99 72.5433C163.587 70.5479 160.1 67.2377 157.521 62.6583C154.942 58.079 153.652 52.3453 153.652 45.4495C153.652 38.5538 154.942 32.8048 157.521 28.2102C160.1 23.6155 163.587 20.3206 167.99 18.3252C172.393 16.3299 177.306 15.7565 182.739 16.6204V12.4004H195.116V16.6204C200.549 15.7565 205.463 16.3299 209.865 18.3252C214.268 20.3206 217.755 23.6155 220.334 28.2102C222.913 32.8124 224.203 38.5614 224.203 45.4495C224.203 52.3377 222.913 58.0714 220.334 62.6583C217.755 67.2377 214.268 70.5479 209.865 72.5433C205.463 74.5615 200.549 75.1426 195.116 74.2863V96.6096H182.739Z" fill="#3C3634"/>
<path d="M172.621 91.8085V88.8652H170.477C170.385 88.8652 170.286 88.8652 170.172 88.8805C170.065 88.8881 169.958 88.9034 169.867 88.934C169.622 89.0028 169.439 89.1098 169.302 89.2704C169.172 89.4309 169.081 89.6068 169.027 89.7902C168.974 89.9814 168.951 90.1648 168.951 90.3407C168.951 90.5165 168.981 90.6924 169.027 90.8835C169.081 91.0746 169.165 91.2504 169.302 91.411C169.432 91.5639 169.622 91.6785 169.867 91.7474C169.958 91.7703 170.057 91.7932 170.172 91.8009C170.286 91.8085 170.385 91.8162 170.477 91.8162H172.621V91.8085ZM169.05 96.7166H167.013L169.073 92.4813L170.92 92.8406L169.043 96.7166H169.05ZM174.414 96.7166H172.614V93.4904H170.393L169.6 93.4369C168.753 93.3069 168.135 92.9553 167.738 92.3895C167.341 91.8238 167.143 91.1434 167.143 90.3407C167.143 89.8055 167.226 89.3239 167.402 88.8881C167.57 88.4524 167.845 88.0931 168.203 87.8102C168.562 87.5197 169.027 87.3362 169.6 87.2445C169.729 87.2215 169.867 87.2062 170.019 87.1986C170.172 87.1986 170.294 87.191 170.393 87.191H174.407V96.7242L174.414 96.7166ZM159.55 95.0347H161.694C161.786 95.0347 161.885 95.0347 162 95.0194C162.107 95.0117 162.213 94.9965 162.305 94.9659C162.549 94.8971 162.732 94.79 162.87 94.6295C162.999 94.4766 163.091 94.3008 163.144 94.1096C163.198 93.9185 163.221 93.735 163.221 93.5669C163.221 93.3987 163.198 93.2152 163.144 93.0164C163.091 92.8253 162.999 92.6495 162.87 92.4966C162.74 92.3437 162.549 92.229 162.305 92.1602C162.213 92.1372 162.114 92.1143 162 92.1067C161.885 92.099 161.786 92.0914 161.694 92.0914H159.55V95.027V95.0347ZM157.757 96.7166V87.1833H159.55V90.4171H161.771C161.862 90.4171 161.984 90.4171 162.137 90.4248C162.297 90.4248 162.435 90.4477 162.557 90.4706C163.121 90.5624 163.587 90.7459 163.953 91.0364C164.312 91.3269 164.579 91.6786 164.762 92.1143C164.93 92.5501 165.021 93.0317 165.021 93.5669C165.021 94.102 164.937 94.5836 164.762 95.0194C164.594 95.4552 164.319 95.8145 163.961 96.105C163.594 96.3955 163.129 96.579 162.564 96.6707C162.442 96.686 162.305 96.7013 162.145 96.7089C161.984 96.7166 161.862 96.7242 161.771 96.7242H157.757V96.7166ZM150.981 96.7166V88.8652H147.983V87.1833H155.781V88.8652H152.782V96.7166H150.989H150.981ZM142.062 96.9153C141.108 96.9153 140.291 96.7089 139.605 96.2961C138.918 95.8833 138.384 95.3023 138.01 94.5531C137.636 93.8115 137.453 92.94 137.453 91.9538C137.453 90.9676 137.644 90.096 138.01 89.3545C138.384 88.6053 138.91 88.0319 139.605 87.6114C140.291 87.1986 141.115 86.9922 142.062 86.9922C143.153 86.9922 144.068 87.2598 144.816 87.8026C145.556 88.3453 146.083 89.0793 146.38 90.0043L144.572 90.5089C144.396 89.9279 144.099 89.4844 143.679 89.1634C143.26 88.8499 142.718 88.6817 142.062 88.6817C141.459 88.6817 140.955 88.8193 140.551 89.0869C140.146 89.3545 139.841 89.7367 139.643 90.226C139.437 90.7153 139.338 91.2887 139.338 91.9538C139.338 92.6189 139.437 93.1922 139.643 93.6815C139.841 94.1708 140.146 94.553 140.551 94.8206C140.955 95.0882 141.459 95.2258 142.062 95.2258C142.725 95.2258 143.26 95.0653 143.679 94.7442C144.099 94.4231 144.396 93.972 144.572 93.3987L146.38 93.9032C146.075 94.8283 145.549 95.5622 144.816 96.105C144.076 96.6478 143.153 96.923 142.062 96.923M129.365 93.0546H134.385V94.7365H129.365V93.0546ZM127.617 96.7242L130.524 87.191H133.203L136.11 96.7242H134.263L131.669 88.3148H132.012L129.464 96.7242H127.617ZM123.68 96.7242V92.5654L123.932 92.9782C123.688 93.1922 123.344 93.3604 122.902 93.4751C122.452 93.5898 121.986 93.6509 121.505 93.6509C120.712 93.6509 120.078 93.4904 119.605 93.177C119.132 92.8635 118.797 92.4278 118.591 91.8697C118.385 91.3116 118.278 90.6694 118.278 89.9355V87.1986H120.101V89.3927C120.101 89.6832 120.109 89.9737 120.132 90.2719C120.155 90.57 120.223 90.8529 120.33 91.1052C120.437 91.3651 120.62 91.5639 120.864 91.7244C121.116 91.885 121.467 91.9614 121.925 91.9614C122.413 91.9614 122.825 91.8773 123.169 91.7091C123.505 91.5409 123.749 91.3575 123.886 91.174L123.688 91.9843V87.2062H125.496V96.7395H123.688L123.68 96.7242ZM111.563 96.923C110.609 96.923 109.793 96.7166 109.106 96.3037C108.419 95.8909 107.885 95.3099 107.511 94.5607C107.137 93.8191 106.954 92.9476 106.954 91.9614C106.954 90.9752 107.145 90.1037 107.511 89.3621C107.885 88.6129 108.412 88.0395 109.106 87.6191C109.793 87.2062 110.617 86.9998 111.563 86.9998C112.654 86.9998 113.57 87.2674 114.318 87.8102C115.058 88.353 115.584 89.0869 115.889 90.0119L114.081 90.5165C113.906 89.9355 113.608 89.4921 113.188 89.171C112.769 88.8576 112.227 88.6894 111.571 88.6894C110.968 88.6894 110.464 88.827 110.06 89.0946C109.655 89.3621 109.35 89.7444 109.152 90.2336C108.953 90.7229 108.847 91.2963 108.847 91.9614C108.847 92.6265 108.946 93.1999 109.152 93.6892C109.358 94.1784 109.655 94.5607 110.06 94.8283C110.464 95.0958 110.968 95.2335 111.571 95.2335C112.234 95.2335 112.769 95.0729 113.188 94.7518C113.608 94.4307 113.906 93.9797 114.081 93.4063L115.889 93.9109C115.584 94.8359 115.058 95.5698 114.318 96.1126C113.577 96.6554 112.654 96.9306 111.563 96.9306M98.95 96.7319V88.1313H95.6232V87.2062H103.238V88.1389H99.9114V96.7395H98.95V96.7319ZM86.4286 96.7319V87.1986H87.39V91.4951H92.655V87.191H93.6164V96.7242H92.655V92.4201H87.39V96.7242H86.421L86.4286 96.7319ZM77.9589 96.7319V87.1986H83.8953V88.1313H78.9203V91.4339H83.1017V92.359H78.9203V95.7992H83.8953V96.7242H77.9589V96.7319ZM65.9182 96.7319V87.1986H66.8109L70.5498 95.2182L74.2734 87.1986H75.1814V96.7242H74.2582V89.3698L70.8703 96.7319H70.2446L66.8643 89.3698V96.7319H65.9334H65.9182ZM55.8461 96.7319V87.1986H63.1255V96.7319H62.164V88.1313H56.8075V96.7395H55.8461V96.7319ZM49.2 95.9979C49.9478 95.9979 50.5659 95.8298 51.0619 95.4857C51.5578 95.1494 51.9317 94.6754 52.1835 94.0638C52.4277 93.4598 52.5574 92.7565 52.5574 91.9614C52.5574 91.1663 52.4277 90.4706 52.1835 89.8667C51.9317 89.2627 51.5578 88.7888 51.0619 88.4524C50.5659 88.116 49.9402 87.9402 49.2 87.9325C48.4523 87.9325 47.8342 88.1007 47.3459 88.4447C46.8499 88.7811 46.4836 89.2627 46.2318 89.8667C45.98 90.4706 45.858 91.174 45.8503 91.9691C45.8503 92.7641 45.9724 93.4598 46.2166 94.0638C46.4608 94.6677 46.8346 95.1417 47.3382 95.4781C47.8342 95.8221 48.4599 95.9903 49.2 95.9979ZM49.2 96.9306C48.2539 96.9306 47.4527 96.7166 46.8041 96.2961C46.1555 95.8756 45.6596 95.2946 45.3238 94.5454C44.9881 93.7962 44.8202 92.94 44.8202 91.9614C44.8202 90.9829 44.9881 90.1266 45.3238 89.3774C45.6596 88.6282 46.1555 88.0472 46.8041 87.6267C47.4527 87.2062 48.2539 86.9922 49.2 86.9922C50.1462 86.9922 50.955 87.1986 51.6036 87.6267C52.2522 88.0472 52.7405 88.6359 53.0839 89.3774C53.4196 90.1266 53.5875 90.9829 53.5875 91.9614C53.5875 92.94 53.4196 93.7962 53.0839 94.5454C52.7482 95.2946 52.2522 95.8756 51.6036 96.2961C50.955 96.7166 50.1538 96.9306 49.2 96.9306ZM34.504 96.7319V95.868C34.7481 95.8909 34.9465 95.8756 35.1068 95.8374C35.267 95.7992 35.3967 95.6998 35.4959 95.5469C35.5951 95.394 35.679 95.1723 35.7554 94.8741C35.8317 94.576 35.908 94.1861 35.9766 93.7045C36.0606 93.1846 36.1292 92.6647 36.1903 92.1525C36.2437 91.6327 36.2971 91.1128 36.3505 90.5777C36.3963 90.0502 36.4345 89.4997 36.465 88.9417C36.4955 88.3836 36.526 87.8026 36.5489 87.1986H42.554V96.7319H41.5849V88.1313H37.4874C37.4569 88.5823 37.4264 89.0487 37.4035 89.5303C37.373 90.0043 37.3425 90.4936 37.2967 90.9905C37.2509 91.4874 37.2051 91.9996 37.1441 92.5271C37.083 93.0546 37.0067 93.5974 36.9228 94.1632C36.8541 94.5836 36.7702 94.9812 36.6786 95.3405C36.5871 95.6998 36.4497 96.0056 36.2818 96.2579C36.1063 96.5025 35.8851 96.6783 35.6027 96.7701C35.3128 96.8618 34.9542 96.8542 34.5116 96.7395M26.7057 96.7395V87.2062H32.6422V88.1389H27.6672V91.4416H31.8486V92.3666H27.6672V95.8068H32.6422V96.7319H26.7057V96.7395ZM18.6481 91.2734H21.334C21.6392 91.2734 21.9139 91.2046 22.1657 91.067C22.4175 90.9293 22.6159 90.7382 22.7608 90.4936C22.9058 90.2489 22.9821 89.9737 22.9821 89.6526C22.9821 89.2016 22.8295 88.8346 22.5167 88.5518C22.2038 88.2689 21.807 88.1313 21.3263 88.1313H18.6405V91.2734H18.6481ZM18.6481 95.8068H21.4103C21.7994 95.8068 22.1428 95.738 22.4556 95.6004C22.7608 95.4628 23.005 95.264 23.1881 95.0117C23.3636 94.7518 23.4552 94.446 23.4552 94.0867C23.4552 93.7274 23.3713 93.414 23.211 93.1311C23.0508 92.8482 22.8295 92.6265 22.5472 92.4507C22.2649 92.2825 21.952 92.1984 21.5934 92.1984H18.6557V95.8145L18.6481 95.8068ZM17.6714 96.7395V87.2062H21.3416C21.8757 87.2062 22.3412 87.3133 22.738 87.535C23.1347 87.7567 23.4399 88.0548 23.6612 88.4218C23.8825 88.7964 23.9893 89.2092 23.9893 89.6603C23.9893 90.1725 23.852 90.6235 23.5773 91.0287C23.3026 91.4263 22.9363 91.7091 22.4785 91.862L22.4633 91.5409C23.0813 91.7168 23.562 92.0226 23.913 92.466C24.264 92.9094 24.4395 93.4369 24.4395 94.0638C24.4395 94.6142 24.3251 95.0882 24.0885 95.4857C23.852 95.8833 23.5239 96.1967 23.1042 96.4108C22.6845 96.6248 22.1886 96.7319 21.6316 96.7319H17.6561L17.6714 96.7395ZM9.20169 96.7395V87.2062H15.1381V88.1389H10.1631V91.4416H14.3446V92.3666H10.1631V95.8068H15.1381V96.7319H9.20169V96.7395ZM3.21186 96.082C4.0512 96.082 4.69215 95.8527 5.14234 95.394C5.59253 94.9353 5.82144 94.2778 5.82144 93.4292V90.9676C5.82144 90.119 5.60016 89.4615 5.14997 89.0028C4.70741 88.5441 4.05883 88.3148 3.21186 88.3148H1.289V96.0897H3.21186V96.082ZM0.548859 96.9994C0.457295 96.9994 0.396252 96.9765 0.3581 96.9383C0.319948 96.9001 0.304688 96.8313 0.304688 96.7242V87.6497C0.304688 87.5503 0.319948 87.4815 0.3581 87.4432C0.396252 87.405 0.457295 87.3821 0.548859 87.3821H3.19659C4.34878 87.3821 5.24153 87.6955 5.86722 88.3301C6.49291 88.9646 6.80576 89.8361 6.80576 90.9599V93.4216C6.80576 94.5454 6.49291 95.4169 5.86722 96.0515C5.24153 96.686 4.34878 96.9994 3.19659 96.9994H0.548859Z" fill="#3C3634"/>
<path d="M191.11 0H194.994V10.7947L194.971 27.239L182.709 27.2696V10.55L182.717 8.28713C182.717 3.76896 186.6 0 191.11 0Z" fill="#3C3634"/>
<path d="M110.686 17.3457H117.966V73.3603H103.926V24.2185C103.926 20.5184 106.986 17.3457 110.679 17.3457" fill="#3C3634"/>
<path d="M93.5645 17.3457H86.2852V73.3603H100.325V24.2185C100.325 20.5184 97.2652 17.3457 93.5721 17.3457" fill="#3C3634"/>
<path d="M23.5397 28.4785C29.1938 28.4785 32.0704 30.0228 32.3756 33.1113C32.3756 36.0929 29.3922 37.8436 23.5397 38.5698C9.76686 39.9077 0.312845 43.4091 0 56.4896C0 68.5381 9.04198 74.6158 22.0975 73.5837C36.7936 72.5517 45.8432 65.8623 45.8432 50.8247V32.2857C45.538 22.1943 37.9305 17.248 22.9216 17.248C10.3849 17.248 3.28869 22.1943 1.64816 32.2857H15.3141C16.0314 29.7093 18.702 28.4708 23.5397 28.4708M20.3502 62.4527C16.0314 62.4527 13.7728 60.3962 13.4676 56.0691C13.4676 52.0555 16.245 49.4792 21.6931 48.4471C25.6991 47.6215 29.3998 46.49 32.5893 45.1521V50.1978C32.5893 57.9192 27.9653 62.4527 20.3578 62.4527" fill="#3C3634"/>
<path d="M39.4023 73.2997H32.5273V51.3281H45.7737V66.8168C45.7737 70.3106 42.8894 73.2997 39.4023 73.2997Z" fill="#3C3634"/>
<path d="M248.696 28.4785C254.35 28.4785 257.227 30.0228 257.532 33.1113C257.532 36.0929 254.556 37.8436 248.696 38.5698C234.923 39.9077 225.469 43.4091 225.156 56.4896C225.156 68.5381 234.198 74.6158 247.254 73.5837C261.95 72.5517 270.999 65.8623 270.999 50.8247V32.2857C270.694 22.1943 263.087 17.248 248.078 17.248C235.541 17.248 228.445 22.1943 226.804 32.2857H240.478C241.195 29.7093 243.866 28.4708 248.704 28.4708M245.514 62.4527C241.195 62.4527 238.937 60.3962 238.624 56.0691C238.624 52.0555 241.401 49.4792 246.849 48.4471C250.855 47.6215 254.556 46.49 257.746 45.1521V50.1978C257.746 57.9192 253.122 62.4527 245.514 62.4527Z" fill="#3C3634"/>
<path d="M264.551 73.2997H257.676V51.3281H270.922V66.8168C270.922 70.3106 268.03 73.2997 264.551 73.2997Z" fill="#3C3634"/>
<path d="M117.989 62.5048H128.511C129.129 62.5048 129.816 62.4742 130.571 62.4054C131.327 62.3366 132.082 62.199 132.838 61.9925C134.28 61.5797 135.554 60.6623 136.653 59.2556C137.751 57.8413 138.301 56.2435 138.301 54.447C138.301 52.4822 137.736 50.7927 136.599 49.4013C135.462 48.0023 134.142 47.1078 132.624 46.695C131.899 46.4886 131.182 46.351 130.457 46.2822C129.732 46.2133 129.083 46.1751 128.496 46.1751H117.974V62.5048H117.989ZM103.964 73.3529V31.4509H117.989V35.3193H126.962C128.511 35.3193 130.312 35.3575 132.38 35.4263C134.44 35.4951 136.141 35.6709 137.484 35.9462C140.75 36.6724 143.505 37.8268 145.733 39.4093C147.961 40.9918 149.67 43.0407 150.822 45.5253C151.959 48.0252 152.539 50.9991 152.539 54.447C152.539 59.4085 151.25 63.3839 148.709 66.4037C146.145 69.4158 142.437 71.5029 137.584 72.642C136.241 72.9554 134.524 73.1542 132.425 73.2306C130.327 73.3147 128.503 73.3682 126.962 73.3682H103.957L103.964 73.3529ZM46.1719 73.3529V61.6714C48.2016 62.0537 49.7658 62.0155 50.8645 61.5874C51.9633 61.1592 52.7874 60.2954 53.3749 59.0034C53.9396 57.7267 54.4203 55.953 54.84 53.7131C55.3893 50.7468 55.8853 47.2913 56.3203 43.3236C56.7476 39.3635 57.1138 35.1587 57.419 30.7323C57.7319 26.3059 58.0066 21.91 58.2431 17.5371H93.4649L86.2999 30.6635H70.5204C70.383 32.4524 70.2075 34.593 69.9862 37.07C69.765 39.5469 69.5208 42.1309 69.2613 44.7837C69.0019 47.4518 68.712 50.0052 68.3991 52.4287C68.0939 54.8598 67.7658 56.9392 67.4224 58.667C66.5984 63.0399 65.3775 66.4878 63.7599 69.003C62.1422 71.5182 59.9218 73.1389 57.1062 73.8422C54.2906 74.5456 50.6433 74.3774 46.1719 73.3453" fill="#3C3634"/>
<path d="M195.108 61.7792C197.756 62.2302 200.022 62.1385 201.914 61.5192C203.807 60.9 205.333 59.845 206.538 58.3695C207.706 56.8864 208.583 55.044 209.133 52.8422C209.682 50.6405 209.957 48.1711 209.957 45.4495C209.957 42.7279 209.697 40.228 209.186 38.0263C208.667 35.8398 207.843 34.0127 206.714 32.5296C205.577 31.0464 204.051 29.9991 202.159 29.3951C200.251 28.7912 197.893 28.7377 195.108 29.2269V61.7792ZM182.732 61.7792V29.2269C179.947 28.7453 177.589 28.8141 175.696 29.4486C173.789 30.0832 172.255 31.1535 171.126 32.6519C169.997 34.1503 169.165 35.9927 168.654 38.1792C168.135 40.3809 167.883 42.7967 167.883 45.4495C167.883 48.1023 168.158 50.5105 168.707 52.7046C169.256 54.8911 170.134 56.7488 171.324 58.2701C172.507 59.7838 174.041 60.8541 175.933 61.4887C177.825 62.1232 180.092 62.2302 182.739 61.7792M182.739 96.6096V74.2863C177.306 75.1502 172.393 74.5615 167.99 72.5433C163.587 70.5479 160.1 67.2377 157.521 62.6583C154.942 58.079 153.652 52.3453 153.652 45.4495C153.652 38.5538 154.942 32.8048 157.521 28.2102C160.1 23.6155 163.587 20.3206 167.99 18.3252C172.393 16.3299 177.306 15.7565 182.739 16.6204V12.4004H195.116V16.6204C200.549 15.7565 205.463 16.3299 209.865 18.3252C214.268 20.3206 217.755 23.6155 220.334 28.2102C222.913 32.8124 224.203 38.5614 224.203 45.4495C224.203 52.3377 222.913 58.0714 220.334 62.6583C217.755 67.2377 214.268 70.5479 209.865 72.5433C205.463 74.5615 200.549 75.1426 195.116 74.2863V96.6096H182.739Z" fill="#3C3634"/>
</svg>
