<svg width="112" height="26" viewBox="0 0 112 26" fill="none" xmlns="http://www.w3.org/2000/svg">
<path d="M24.9321 16.5021H35.069L37.1464 21.5865C38.001 23.403 38.8556 24.1288 40.9329 24.1288L43.1287 24.0071L34.5783 4.39086C33.8464 2.45273 32.869 1.84863 30.9144 1.84863H28.5917L29.569 4.03008L21.3867 24.1288H21.8733L24.9279 16.5021H24.9321ZM29.8187 4.51252L34.8237 16.1371H25.0548L29.8187 4.51252Z" fill="#5D5553"/>
<path d="M43.7812 21.2844C43.7812 23.8266 45.7359 24.0699 47.4451 24.0699H52.5728C59.1643 24.0699 61.0005 20.6803 61.0005 17.7731C61.0005 14.3834 58.6778 11.8412 54.4047 11.4762C57.7005 10.7505 59.4097 8.81235 59.4097 6.87422C59.4097 4.33199 56.7232 1.90723 51.3501 1.90723H43.7812V21.2802V21.2844ZM48.2997 11.3546V2.2722H50.8636C53.3047 2.2722 54.4047 4.57531 54.4047 6.87422C54.4047 9.17313 53.182 11.3546 50.7409 11.3546H48.2997ZM48.2997 11.837H50.8636C54.4047 11.837 56.114 14.7442 56.114 17.6472C56.114 20.5502 54.4047 23.7007 50.8636 23.7007H48.2997V11.8328V11.837Z" fill="#5D5553"/>
<path d="M93.0938 12.1392H86.663V4.63417C86.663 2.09195 84.7084 1.84863 83.1218 1.84863H82.1445V21.3432C82.1445 23.7638 84.0992 24.1288 85.8084 24.1288L86.663 24.0071V12.5042H93.0938V12.1392Z" fill="#5D5553"/>
<path d="M62.3105 24.0657H69.1475C76.3525 24.0657 79.8936 20.4327 79.8936 16.6781C79.8936 12.9235 76.3525 9.4122 69.1475 9.29055H66.7063V1.91138H65.8517C64.1425 1.91138 62.3105 2.1505 62.3105 4.69272V24.0657ZM66.7063 9.77718H69.0248C73.0567 9.65552 75.0071 13.2885 75.0071 16.6781C75.0071 20.3111 72.9298 23.7007 69.0248 23.7007H66.7063V9.78137V9.77718Z" fill="#5D5553"/>
<path d="M12.3327 4.57111C11.3554 2.39386 10.3781 1.90723 8.54616 1.90723H8.18232L0 24.0657H0.486539L7.56885 4.69277L14.8966 21.4018C15.7512 23.5791 16.7285 24.0657 18.5604 24.0657H20.8789L12.3327 4.57111Z" fill="#5D5553"/>
<path d="M100.828 24.5524C115.725 24.5524 115.725 1.4248 100.828 1.4248C85.9317 1.4248 85.9275 24.5524 100.828 24.5524ZM100.828 24.0657C92.4006 24.0657 92.4006 1.90724 100.828 1.90724C109.256 1.90724 109.133 24.0657 100.828 24.0657Z" fill="#5D5553"/>
</svg>
