<svg width="190" height="125" viewBox="0 0 190 125" fill="none" xmlns="http://www.w3.org/2000/svg">
<g clip-path="url(#clip0_1932_5005)">
<path d="M112.623 38.6098V18.6893C112.623 8.90174 104.678 0.934959 94.9175 0.934959C85.1566 0.934959 77.2115 8.90174 77.2115 18.6893V39.1064L86.6494 26.2603L91.3289 33.2627L100.953 20.7188L103.465 24.5762L112.631 38.6026L112.623 38.6098ZM76.2713 50.8299V18.6893C76.2713 16.1776 76.7593 13.7235 77.7354 11.4134C78.6756 9.18241 80.0249 7.18172 81.7331 5.4689C83.4412 3.75608 85.4365 2.40309 87.6614 1.46032C89.9652 0.481565 92.4126 -0.0078125 94.9175 -0.0078125C97.4223 -0.0078125 99.8697 0.481565 102.174 1.46032C104.398 2.40309 106.394 3.75608 108.102 5.4689C109.81 7.18172 111.159 9.18241 112.092 11.4134C113.068 13.7235 113.556 16.1776 113.556 18.6893V51.0314C114.009 51.0314 114.439 51.0314 114.848 51.0314H123.267C122.262 51.8302 121.157 52.7874 120.131 53.5215C119.966 53.6366 119.743 53.7158 119.427 53.7158C116.815 53.7158 114.21 53.7158 111.597 53.7158H108.001C105.855 53.7158 103.078 52.4635 101.499 51.089C99.0658 49.0019 97.9103 45.6338 99.7046 42.8487C97.4797 43.1366 94.9318 44.7343 93.5107 45.7778C88.7092 49.3761 82.8455 53.7158 76.5512 53.7158H70.3502C69.5248 53.7086 67.264 51.6287 66.5176 51.0314H70.5798C72.8191 51.0242 74.6564 50.981 76.2713 50.8299ZM112.623 51.0314V40.6681L100.839 22.5899L91.092 35.2778L91.1495 35.0259L86.5633 28.1386L77.2043 40.8552V50.7219C81.8694 50.1246 84.891 48.3758 91.6662 43.3093C97.774 38.725 104.083 38.0845 106.544 44.0937C103.243 41.8052 99.8553 45.5763 103.508 48.7356C105.798 50.7363 109.48 51.0026 112.631 51.0314" fill="white"/>
<path d="M164.579 119.991C164.959 119.991 165.254 119.898 165.447 119.704C165.648 119.509 165.742 119.229 165.742 118.847C165.742 118.466 165.641 118.192 165.447 117.998C165.254 117.804 164.959 117.71 164.579 117.71H162.562V119.991H164.579ZM164.737 122.985C165.132 122.985 165.433 122.884 165.641 122.676C165.849 122.474 165.957 122.172 165.957 121.783C165.957 121.395 165.849 121.092 165.641 120.891C165.433 120.689 165.132 120.582 164.737 120.582H162.562V122.978H164.737V122.985ZM162.081 123.597C162.017 123.597 161.966 123.583 161.945 123.554C161.916 123.525 161.909 123.482 161.909 123.41V117.278C161.909 117.213 161.923 117.163 161.945 117.134C161.966 117.105 162.017 117.091 162.081 117.091H164.665C165.225 117.091 165.656 117.235 165.964 117.523C166.273 117.811 166.423 118.221 166.423 118.761C166.423 119.488 166.136 119.977 165.562 120.222V120.243C165.914 120.337 166.187 120.517 166.366 120.79C166.553 121.064 166.646 121.416 166.646 121.848C166.646 122.402 166.474 122.834 166.136 123.136C165.792 123.439 165.333 123.59 164.751 123.59H162.074L162.081 123.597ZM155.629 121.431C155.629 121.97 155.787 122.381 156.11 122.676C156.433 122.971 156.885 123.115 157.481 123.115C158.076 123.115 158.536 122.971 158.852 122.676C159.167 122.381 159.325 121.97 159.325 121.431V119.272C159.325 118.732 159.167 118.322 158.852 118.027C158.536 117.739 158.076 117.588 157.481 117.588C156.885 117.588 156.426 117.732 156.11 118.027C155.794 118.322 155.629 118.732 155.629 119.272V121.431ZM157.481 123.726C156.67 123.726 156.053 123.525 155.622 123.115C155.191 122.712 154.976 122.143 154.976 121.431V119.272C154.976 118.552 155.191 117.991 155.622 117.58C156.053 117.177 156.677 116.969 157.481 116.969C158.285 116.969 158.902 117.17 159.332 117.58C159.763 117.983 159.978 118.552 159.978 119.272V121.431C159.978 122.15 159.763 122.712 159.332 123.115C158.902 123.518 158.285 123.726 157.481 123.726ZM152.163 122.985V117.717H149.5V119.142C149.5 120.315 149.428 121.179 149.277 121.733C149.134 122.287 148.94 122.705 148.703 122.978H152.163V122.985ZM147.584 125C147.512 125 147.469 124.986 147.447 124.957C147.426 124.928 147.411 124.885 147.411 124.813V123.158C147.411 123.093 147.426 123.043 147.447 123.021C147.476 123 147.519 122.985 147.584 122.985H147.914C148.093 122.856 148.251 122.683 148.38 122.453C148.509 122.23 148.624 121.848 148.718 121.316C148.811 120.783 148.861 120.063 148.861 119.142V117.285C148.861 117.221 148.875 117.17 148.904 117.141C148.933 117.113 148.983 117.098 149.048 117.098H152.651C152.715 117.098 152.765 117.113 152.794 117.141C152.823 117.17 152.837 117.213 152.837 117.285V122.985H153.411C153.476 122.985 153.526 123 153.555 123.021C153.584 123.043 153.598 123.093 153.598 123.158V124.813C153.598 124.878 153.584 124.928 153.555 124.957C153.526 124.986 153.483 125 153.411 125H153.117C153.052 125 153.002 124.986 152.981 124.957C152.952 124.928 152.945 124.885 152.945 124.813V123.597H148.064V124.813C148.064 124.878 148.05 124.928 148.021 124.957C147.993 124.986 147.95 125 147.878 125H147.591H147.584ZM141.138 123.597C141.074 123.597 141.024 123.583 141.002 123.554C140.973 123.525 140.966 123.482 140.966 123.41V117.278C140.966 117.213 140.981 117.163 141.002 117.134C141.024 117.105 141.074 117.091 141.138 117.091H141.447C141.512 117.091 141.562 117.105 141.583 117.134C141.612 117.163 141.619 117.206 141.619 117.278V120.783C141.619 121.179 141.612 121.517 141.598 121.791C141.583 122.071 141.555 122.381 141.512 122.741H141.533C141.813 122.215 142.158 121.639 142.574 121.021L145.201 117.185C145.244 117.12 145.308 117.091 145.394 117.091H145.696C145.761 117.091 145.811 117.105 145.839 117.134C145.868 117.163 145.883 117.206 145.883 117.278V123.41C145.883 123.475 145.868 123.525 145.839 123.554C145.811 123.583 145.768 123.597 145.696 123.597H145.394C145.33 123.597 145.28 123.583 145.251 123.554C145.222 123.525 145.208 123.482 145.208 123.41V119.811C145.208 119.444 145.215 119.135 145.237 118.876C145.258 118.624 145.287 118.307 145.33 117.94H145.316C145.172 118.221 145.028 118.473 144.885 118.703C144.741 118.933 144.562 119.214 144.339 119.552L141.648 123.489C141.627 123.532 141.598 123.561 141.569 123.568C141.54 123.583 141.505 123.583 141.454 123.583H141.146L141.138 123.597ZM137.076 119.991C137.457 119.991 137.751 119.898 137.945 119.704C138.146 119.509 138.239 119.229 138.239 118.847C138.239 118.466 138.138 118.192 137.945 117.998C137.751 117.804 137.457 117.71 137.076 117.71H135.059V119.991H137.076ZM137.234 122.985C137.629 122.985 137.93 122.884 138.138 122.676C138.347 122.474 138.454 122.172 138.454 121.783C138.454 121.395 138.347 121.092 138.138 120.891C137.93 120.689 137.629 120.582 137.234 120.582H135.059V122.978H137.234V122.985ZM134.579 123.597C134.514 123.597 134.464 123.583 134.442 123.554C134.421 123.525 134.406 123.482 134.406 123.41V117.278C134.406 117.213 134.421 117.163 134.442 117.134C134.464 117.105 134.514 117.091 134.579 117.091H137.162C137.722 117.091 138.153 117.235 138.461 117.523C138.77 117.811 138.921 118.221 138.921 118.761C138.921 119.488 138.634 119.977 138.067 120.222V120.243C138.418 120.337 138.691 120.517 138.87 120.79C139.057 121.064 139.15 121.416 139.15 121.848C139.15 122.402 138.978 122.834 138.641 123.136C138.296 123.439 137.837 123.59 137.256 123.59H134.586L134.579 123.597ZM125.456 123.597C125.413 123.597 125.385 123.597 125.363 123.575C125.342 123.561 125.334 123.539 125.334 123.518C125.334 123.489 125.349 123.453 125.378 123.41L127.602 120.301L125.442 117.278C125.442 117.278 125.413 117.221 125.413 117.199C125.413 117.134 125.449 117.105 125.528 117.105H125.887C125.988 117.105 126.059 117.113 126.102 117.134C126.145 117.149 126.189 117.199 126.232 117.264L128.026 119.783L129.82 117.264C129.863 117.199 129.906 117.156 129.942 117.134C129.978 117.113 130.05 117.105 130.143 117.105H130.509C130.588 117.105 130.631 117.134 130.631 117.199C130.631 117.221 130.624 117.249 130.602 117.278L128.428 120.301L130.674 123.41C130.703 123.453 130.717 123.489 130.717 123.511C130.717 123.568 130.674 123.604 130.581 123.604H130.215C130.107 123.604 130.028 123.604 129.992 123.583C129.949 123.568 129.913 123.525 129.87 123.453L127.99 120.819L126.138 123.453C126.088 123.518 126.045 123.561 126.009 123.583C125.966 123.597 125.901 123.611 125.794 123.611H125.449L125.456 123.597ZM119.076 123.597C119.004 123.597 118.961 123.583 118.94 123.554C118.918 123.525 118.904 123.482 118.904 123.41V117.278C118.904 117.213 118.918 117.163 118.94 117.134C118.961 117.105 119.011 117.091 119.076 117.091H119.385C119.456 117.091 119.499 117.105 119.521 117.134C119.55 117.163 119.557 117.206 119.557 117.278V120.783C119.557 121.179 119.55 121.517 119.535 121.791C119.521 122.071 119.492 122.381 119.449 122.741H119.471C119.751 122.215 120.095 121.639 120.511 121.021L123.138 117.185C123.181 117.12 123.246 117.091 123.332 117.091H123.633C123.698 117.091 123.748 117.105 123.777 117.134C123.806 117.163 123.82 117.206 123.82 117.278V123.41C123.82 123.475 123.806 123.525 123.777 123.554C123.748 123.583 123.705 123.597 123.633 123.597H123.332C123.26 123.597 123.217 123.583 123.188 123.554C123.16 123.525 123.145 123.482 123.145 123.41V119.811C123.145 119.444 123.153 119.135 123.174 118.876C123.196 118.624 123.224 118.307 123.267 117.94H123.246C123.102 118.221 122.959 118.473 122.815 118.703C122.679 118.933 122.492 119.214 122.27 119.552L119.578 123.489C119.557 123.532 119.528 123.561 119.499 123.568C119.471 123.583 119.435 123.583 119.385 123.583H119.076V123.597ZM110.069 123.597C109.997 123.597 109.954 123.583 109.932 123.554C109.911 123.525 109.896 123.482 109.896 123.41V117.278C109.896 117.213 109.911 117.163 109.932 117.134C109.954 117.105 110.004 117.091 110.069 117.091H110.377C110.442 117.091 110.485 117.105 110.514 117.134C110.535 117.163 110.55 117.206 110.55 117.278V122.978H113.011V117.278C113.011 117.213 113.026 117.163 113.047 117.134C113.069 117.105 113.119 117.091 113.184 117.091H113.485C113.55 117.091 113.6 117.105 113.629 117.134C113.657 117.163 113.672 117.206 113.672 117.278V122.978H116.126V117.278C116.126 117.213 116.141 117.163 116.169 117.134C116.198 117.105 116.248 117.091 116.313 117.091H116.614C116.679 117.091 116.729 117.105 116.758 117.134C116.786 117.163 116.801 117.206 116.801 117.278V123.41C116.801 123.475 116.786 123.525 116.758 123.554C116.729 123.583 116.686 123.597 116.614 123.597H110.076H110.069ZM107.291 123.597C107.227 123.597 107.176 123.583 107.155 123.554C107.133 123.525 107.119 123.482 107.119 123.41V120.97C106.954 121.006 106.724 121.049 106.423 121.085C106.121 121.128 105.791 121.15 105.425 121.15C104.607 121.15 104.026 120.963 103.66 120.589C103.301 120.214 103.114 119.653 103.114 118.912V117.285C103.114 117.221 103.128 117.17 103.157 117.141C103.186 117.113 103.229 117.098 103.301 117.098H103.602C103.667 117.098 103.717 117.113 103.738 117.141C103.76 117.17 103.774 117.213 103.774 117.285V118.912C103.774 119.452 103.904 119.862 104.162 120.128C104.42 120.394 104.851 120.531 105.454 120.531C105.82 120.531 106.157 120.51 106.473 120.459C106.789 120.416 107.004 120.373 107.126 120.337V117.278C107.126 117.213 107.14 117.163 107.162 117.134C107.183 117.105 107.234 117.091 107.298 117.091H107.6C107.664 117.091 107.715 117.105 107.743 117.134C107.772 117.163 107.786 117.206 107.786 117.278V123.41C107.786 123.475 107.772 123.525 107.743 123.554C107.715 123.583 107.672 123.597 107.6 123.597H107.298H107.291ZM98.291 123.597C98.2121 123.597 98.1762 123.568 98.1762 123.518C98.1762 123.489 98.1834 123.453 98.2049 123.417L99.059 121.74L96.7121 117.285C96.7121 117.285 96.6834 117.221 96.6834 117.192C96.6834 117.127 96.7264 117.098 96.8125 117.098H97.1212C97.2288 117.098 97.3078 117.105 97.3508 117.127C97.3939 117.141 97.4298 117.192 97.4728 117.257L99.4035 121.006L101.241 117.257C101.277 117.185 101.313 117.141 101.348 117.127C101.384 117.113 101.456 117.105 101.557 117.105H101.858C101.944 117.105 101.987 117.134 101.987 117.199C101.987 117.221 101.98 117.257 101.959 117.293L98.937 123.453C98.9155 123.511 98.8796 123.554 98.8437 123.575C98.8006 123.597 98.736 123.604 98.6499 123.604H98.291V123.597ZM90.3962 123.698C90.3531 123.712 90.3173 123.726 90.2885 123.726C90.2383 123.726 90.1952 123.69 90.1594 123.619L90.023 123.352C90.0015 123.287 89.9871 123.251 89.9871 123.244C89.9871 123.194 90.0302 123.151 90.1091 123.115C90.389 122.978 90.6043 122.82 90.7694 122.633C90.9273 122.445 91.0565 122.093 91.1641 121.589C91.2646 121.085 91.322 120.337 91.322 119.358V117.293C91.322 117.228 91.3364 117.177 91.3579 117.149C91.3866 117.12 91.4297 117.105 91.4943 117.105H95.0685C95.1331 117.105 95.1833 117.12 95.2121 117.149C95.2408 117.177 95.2551 117.221 95.2551 117.293V123.424C95.2551 123.489 95.2408 123.539 95.2121 123.568C95.1833 123.597 95.1403 123.611 95.0685 123.611H94.7671C94.7025 123.611 94.6522 123.597 94.6307 123.568C94.6092 123.539 94.5948 123.496 94.5948 123.424V117.724H91.968V119.351C91.968 120.452 91.9034 121.301 91.767 121.884C91.6307 122.467 91.4656 122.877 91.2575 123.1C91.0493 123.323 90.7694 123.525 90.4106 123.705M82.4224 118.998C82.4224 119.401 82.5373 119.711 82.7669 119.934C82.9966 120.15 83.3124 120.265 83.7215 120.265H85.767V117.724H83.7215C83.3052 117.724 82.9894 117.832 82.7669 118.055C82.5444 118.279 82.4296 118.595 82.4296 119.005M81.7334 123.604C81.6473 123.604 81.6042 123.575 81.6042 123.511C81.6042 123.489 81.6114 123.453 81.6329 123.417L82.5875 121.424C82.7382 121.114 82.9248 120.898 83.1473 120.783C82.7023 120.704 82.3578 120.51 82.1138 120.207C81.8698 119.905 81.7478 119.502 81.7478 118.998C81.7478 118.401 81.92 117.933 82.2573 117.602C82.5947 117.271 83.0612 117.105 83.6641 117.105H86.255C86.3196 117.105 86.3698 117.12 86.3914 117.149C86.4129 117.177 86.4272 117.221 86.4272 117.293V123.424C86.4272 123.489 86.4129 123.539 86.3914 123.568C86.3698 123.597 86.3196 123.611 86.255 123.611H85.9536C85.889 123.611 85.8387 123.597 85.81 123.568C85.7813 123.539 85.767 123.496 85.767 123.424V120.877H84.5038C84.1521 120.877 83.8794 120.934 83.6928 121.049C83.5062 121.164 83.3411 121.373 83.1975 121.668L82.3865 123.446C82.3578 123.503 82.3148 123.547 82.2645 123.568C82.2143 123.59 82.1353 123.597 82.0205 123.597H81.7262L81.7334 123.604ZM75.1376 123.604C75.073 123.604 75.0228 123.59 75.0013 123.561C74.9797 123.532 74.9654 123.489 74.9654 123.417V117.285C74.9654 117.221 74.9797 117.17 75.0013 117.141C75.0228 117.113 75.073 117.098 75.1376 117.098H75.4463C75.5108 117.098 75.5539 117.113 75.5826 117.141C75.6041 117.17 75.6185 117.213 75.6185 117.285V120.79C75.6185 121.186 75.6113 121.524 75.597 121.798C75.5826 122.078 75.5539 122.388 75.5108 122.748H75.5324C75.8123 122.222 76.1568 121.647 76.5731 121.028L79.1999 117.192C79.2429 117.127 79.3075 117.098 79.3937 117.098H79.6951C79.7597 117.098 79.8099 117.113 79.8386 117.141C79.8674 117.17 79.8817 117.213 79.8817 117.285V123.417C79.8817 123.482 79.8674 123.532 79.8386 123.561C79.8099 123.59 79.7669 123.604 79.6951 123.604H79.3937C79.3291 123.604 79.2788 123.59 79.2501 123.561C79.2214 123.532 79.2071 123.489 79.2071 123.417V119.819C79.2071 119.452 79.2142 119.142 79.2358 118.883C79.2501 118.631 79.286 118.315 79.3291 117.948H79.3075C79.164 118.228 79.0205 118.48 78.8769 118.71C78.7406 118.941 78.5539 119.221 78.3315 119.56L75.64 123.496C75.6185 123.539 75.5898 123.568 75.5611 123.575C75.5324 123.59 75.4965 123.59 75.4463 123.59H75.1376V123.604ZM72.9056 125.007C72.841 125.007 72.7907 124.993 72.762 124.964C72.7333 124.936 72.7189 124.892 72.7189 124.82V123.604H68.0825C68.0179 123.604 67.9677 123.59 67.9462 123.561C67.9246 123.532 67.9103 123.489 67.9103 123.417V117.285C67.9103 117.221 67.9246 117.17 67.9462 117.141C67.9677 117.113 68.0179 117.098 68.0825 117.098H68.3911C68.4557 117.098 68.506 117.113 68.5275 117.141C68.549 117.17 68.5634 117.213 68.5634 117.285V122.985H71.951V117.285C71.951 117.221 71.9653 117.17 71.9941 117.141C72.0228 117.113 72.0658 117.098 72.1376 117.098H72.439C72.5036 117.098 72.5467 117.113 72.5754 117.141C72.5969 117.17 72.6113 117.213 72.6113 117.285V122.985H73.1783C73.2429 122.985 73.2931 123 73.3218 123.021C73.3505 123.043 73.3649 123.093 73.3649 123.158V124.813C73.3649 124.878 73.3505 124.928 73.3218 124.957C73.2931 124.986 73.25 125 73.1783 125H72.9056V125.007ZM61.1781 123.604C61.1135 123.604 61.0633 123.59 61.0418 123.561C61.0202 123.532 61.0059 123.489 61.0059 123.417V117.285C61.0059 117.221 61.0202 117.17 61.0418 117.141C61.0633 117.113 61.1135 117.098 61.1781 117.098H61.4867C61.5513 117.098 61.6016 117.113 61.6231 117.141C61.6446 117.17 61.659 117.213 61.659 117.285V119.991H65.1327V117.285C65.1327 117.221 65.1471 117.17 65.1758 117.141C65.2045 117.113 65.2476 117.098 65.3193 117.098H65.6208C65.6854 117.098 65.7356 117.113 65.7571 117.141C65.7787 117.17 65.793 117.213 65.793 117.285V123.417C65.793 123.482 65.7787 123.532 65.7571 123.561C65.7356 123.59 65.6854 123.604 65.6208 123.604H65.3193C65.2547 123.604 65.2045 123.59 65.1758 123.561C65.1471 123.532 65.1327 123.489 65.1327 123.417V120.617H61.659V123.417C61.659 123.482 61.6446 123.532 61.6231 123.561C61.6016 123.59 61.5513 123.604 61.4867 123.604H61.1781ZM55.2498 123.604C55.1852 123.604 55.135 123.59 55.1135 123.561C55.0919 123.532 55.0776 123.489 55.0776 123.417V117.285C55.0776 117.221 55.0919 117.17 55.1135 117.141C55.135 117.113 55.1852 117.098 55.2498 117.098H58.9532C59.0178 117.098 59.0681 117.113 59.0896 117.141C59.1183 117.17 59.1255 117.213 59.1255 117.285V117.544C59.1255 117.609 59.1111 117.652 59.0896 117.681C59.0681 117.703 59.0178 117.717 58.9532 117.717H55.7307V119.999H58.5441C58.6087 119.999 58.659 120.013 58.6805 120.042C58.7092 120.071 58.7164 120.114 58.7164 120.186V120.445C58.7164 120.51 58.702 120.56 58.6805 120.589C58.659 120.617 58.6087 120.632 58.5441 120.632H55.7307V123H59.0609C59.1255 123 59.1757 123.014 59.2044 123.036C59.2331 123.057 59.2475 123.108 59.2475 123.172V123.431C59.2475 123.496 59.2331 123.547 59.2044 123.575C59.1757 123.604 59.1326 123.619 59.0609 123.619H55.2498V123.604ZM52.0632 122.992V117.724H49.4005V119.149C49.4005 120.322 49.3287 121.186 49.178 121.74C49.0344 122.294 48.8407 122.712 48.6038 122.985H52.0632V122.992ZM47.4842 125.007C47.4196 125.007 47.3693 124.993 47.3478 124.964C47.3263 124.936 47.3119 124.892 47.3119 124.82V123.165C47.3119 123.1 47.3263 123.05 47.3478 123.028C47.3693 123.007 47.4196 122.992 47.4842 122.992H47.8143C47.9938 122.863 48.1516 122.69 48.288 122.46C48.4172 122.237 48.532 121.855 48.6253 121.323C48.7186 120.79 48.7689 120.071 48.7689 119.149V117.293C48.7689 117.228 48.7832 117.177 48.8119 117.149C48.8407 117.12 48.8837 117.105 48.9555 117.105H52.5584C52.623 117.105 52.6732 117.12 52.7019 117.149C52.7307 117.177 52.745 117.221 52.745 117.293V122.992H53.3192C53.3838 122.992 53.434 123.007 53.4627 123.028C53.4914 123.05 53.5058 123.1 53.5058 123.165V124.82C53.5058 124.885 53.4914 124.936 53.4627 124.964C53.434 124.993 53.391 125.007 53.3192 125.007H53.0249C52.9603 125.007 52.9101 124.993 52.8886 124.964C52.867 124.936 52.8527 124.892 52.8527 124.82V123.604H47.9722V124.82C47.9722 124.885 47.9579 124.936 47.9292 124.964C47.9004 124.993 47.8574 125.007 47.7856 125.007H47.4914H47.4842ZM41.0391 123.604C40.9745 123.604 40.9243 123.59 40.9028 123.561C40.8812 123.532 40.8669 123.489 40.8669 123.417V117.285C40.8669 117.221 40.8812 117.17 40.9028 117.141C40.9243 117.113 40.9745 117.098 41.0391 117.098H41.3477C41.4123 117.098 41.4626 117.113 41.4841 117.141C41.5056 117.17 41.52 117.213 41.52 117.285V120.79C41.52 121.186 41.52 121.524 41.4985 121.798C41.4841 122.078 41.4554 122.388 41.4123 122.748H41.4339C41.7138 122.222 42.0583 121.647 42.4745 121.028L45.1014 117.192C45.1444 117.127 45.209 117.098 45.2952 117.098H45.5966C45.6612 117.098 45.7114 117.113 45.7401 117.141C45.7688 117.17 45.7832 117.213 45.7832 117.285V123.417C45.7832 123.482 45.7688 123.532 45.7401 123.561C45.7114 123.59 45.6684 123.604 45.5966 123.604H45.2952C45.2306 123.604 45.1803 123.59 45.1516 123.561C45.1229 123.532 45.1085 123.489 45.1085 123.417V119.819C45.1085 119.452 45.1157 119.142 45.1373 118.883C45.1588 118.631 45.1875 118.315 45.2306 117.948H45.2162C45.0727 118.228 44.9291 118.48 44.7856 118.71C44.6492 118.941 44.4626 119.221 44.2401 119.56L41.5487 123.496C41.5272 123.539 41.4985 123.568 41.4697 123.575C41.441 123.59 41.4052 123.59 41.3549 123.59H41.0463L41.0391 123.604ZM36.7257 123.734C35.9936 123.734 35.4266 123.597 35.0175 123.331C34.6084 123.064 34.3213 122.661 34.1563 122.143C34.1419 122.093 34.1347 122.064 34.1347 122.042C34.1347 121.985 34.1778 121.942 34.2639 121.906L34.551 121.805C34.6012 121.791 34.63 121.783 34.6443 121.783C34.7017 121.783 34.752 121.827 34.7807 121.92C34.917 122.33 35.1323 122.633 35.4266 122.827C35.7209 123.021 36.1587 123.122 36.74 123.122C37.2855 123.122 37.6946 123.007 37.9601 122.777C38.2257 122.546 38.3621 122.222 38.3621 121.805C38.3621 121.431 38.2616 121.136 38.0534 120.92C37.8453 120.697 37.551 120.589 37.1707 120.589H35.5989C35.5343 120.589 35.484 120.574 35.4625 120.553C35.441 120.524 35.4266 120.481 35.4266 120.416V120.171C35.4266 120.107 35.441 120.056 35.4625 120.035C35.484 120.006 35.5343 119.999 35.5989 119.999H37.1061C37.4649 119.999 37.7376 119.891 37.9171 119.682C38.0965 119.473 38.1898 119.2 38.1898 118.861C38.1898 118.444 38.0678 118.135 37.8166 117.919C37.5654 117.703 37.1994 117.595 36.7041 117.595C36.1587 117.595 35.7424 117.688 35.4625 117.876C35.1826 118.063 34.9745 118.358 34.8453 118.768C34.8094 118.854 34.7663 118.897 34.7089 118.897C34.6945 118.897 34.6658 118.897 34.6156 118.876L34.3285 118.775C34.2424 118.739 34.1993 118.696 34.1993 118.646C34.1993 118.624 34.1993 118.595 34.2209 118.545C34.3859 118.019 34.6658 117.631 35.0606 117.372C35.4625 117.113 36.0151 116.983 36.7328 116.983C37.4506 116.983 37.953 117.141 38.3118 117.458C38.6707 117.775 38.8501 118.221 38.8501 118.804C38.8501 119.142 38.7783 119.437 38.642 119.689C38.5056 119.941 38.2975 120.128 38.0176 120.243C38.3692 120.366 38.6276 120.56 38.7999 120.841C38.9649 121.114 39.0511 121.445 39.0511 121.841C39.0511 122.445 38.8573 122.913 38.4697 123.244C38.0821 123.575 37.5008 123.741 36.7328 123.741M28.7662 123.611C28.6945 123.611 28.6514 123.597 28.6299 123.568C28.6083 123.539 28.594 123.496 28.594 123.424V117.293C28.594 117.228 28.6083 117.177 28.6299 117.149C28.6514 117.12 28.7016 117.105 28.7662 117.105H32.4696C32.5414 117.105 32.5845 117.12 32.606 117.149C32.6275 117.177 32.6419 117.221 32.6419 117.293V117.552C32.6419 117.616 32.6275 117.66 32.606 117.688C32.5845 117.71 32.5342 117.724 32.4696 117.724H29.2471V120.006H32.0605C32.1251 120.006 32.1754 120.02 32.1969 120.049C32.2184 120.078 32.2328 120.121 32.2328 120.193V120.452C32.2328 120.517 32.2184 120.567 32.1969 120.596C32.1754 120.625 32.1251 120.639 32.0605 120.639H29.2471V123.007H32.5773C32.6419 123.007 32.6921 123.021 32.7208 123.043C32.7495 123.064 32.7639 123.115 32.7639 123.18V123.439C32.7639 123.503 32.7495 123.554 32.7208 123.583C32.6921 123.611 32.6491 123.626 32.5773 123.626H28.7662V123.611ZM24.7829 120.553C25.2279 120.553 25.5796 120.43 25.8308 120.178C26.0892 119.927 26.2112 119.581 26.2112 119.142C26.2112 118.703 26.082 118.351 25.8308 118.099C25.5796 117.847 25.2279 117.724 24.7829 117.724H22.8738V120.553H24.7829ZM22.393 123.611C22.3284 123.611 22.2781 123.597 22.2566 123.568C22.2351 123.539 22.2207 123.496 22.2207 123.424V117.293C22.2207 117.228 22.2351 117.177 22.2566 117.149C22.2781 117.12 22.3284 117.105 22.393 117.105H24.8404C25.4791 117.105 25.9815 117.285 26.3475 117.645C26.7136 118.005 26.9002 118.502 26.9002 119.135C26.9002 119.768 26.7136 120.265 26.3475 120.625C25.9815 120.977 25.4719 121.157 24.8404 121.157H22.881V123.417C22.881 123.482 22.8666 123.532 22.8451 123.561C22.8236 123.59 22.7733 123.604 22.7087 123.604H22.4001L22.393 123.611Z" fill="white"/>
<path d="M42.2957 95.6089H59.4921L63.016 104.331C64.4658 107.448 65.9156 108.693 69.4396 108.693L73.1645 108.484L58.6595 74.8319C57.4179 71.507 55.76 70.4707 52.4441 70.4707H48.5039L50.1618 74.213L36.2812 108.693H37.1066L42.2885 95.6089H42.2957ZM50.5853 75.0406L59.0758 94.9828H42.5038L50.5853 75.0406Z" fill="white"/>
<path d="M74.2695 103.812C74.2695 108.173 77.5854 108.591 80.4849 108.591H89.1836C100.366 108.591 103.48 102.776 103.48 97.7883C103.48 91.9734 99.5402 87.6122 92.2913 86.9861C97.8823 85.741 100.782 82.4161 100.782 79.0912C100.782 74.73 96.2244 70.5703 87.1094 70.5703H74.2695V103.805V103.812ZM81.9347 86.7774V71.1964H86.284C90.4252 71.1964 92.2913 75.1474 92.2913 79.0912C92.2913 83.0351 90.2171 86.7774 86.0759 86.7774H81.9347ZM81.9347 87.605H86.284C92.2913 87.605 95.1908 92.5923 95.1908 97.5724C95.1908 102.553 92.2913 107.957 86.284 107.957H81.9347V87.5978V87.605Z" fill="white"/>
<path d="M157.926 88.1315H147.017V75.2493C147.017 70.8881 143.701 70.4707 141.009 70.4707H139.352V103.914C139.352 108.066 142.667 108.693 145.567 108.693L147.017 108.484V88.7504H157.926V88.1243V88.1315Z" fill="white"/>
<path d="M105.705 108.591H117.303C129.526 108.591 135.533 102.359 135.533 95.9178C135.533 89.4767 129.526 83.4531 117.303 83.2444H113.162V70.5781H111.712C108.813 70.5781 105.705 70.9883 105.705 75.3496V108.584V108.591ZM113.162 84.0792H117.095C123.935 83.8705 127.244 90.1029 127.244 95.9178C127.244 102.15 123.72 107.965 117.095 107.965H113.162V84.0792Z" fill="white"/>
<path d="M20.9213 75.1402C19.2634 71.4051 17.6055 70.5703 14.4978 70.5703H13.8806L0 108.583H0.825369L12.8399 75.3489L25.2707 104.014C26.7204 107.749 28.3783 108.583 31.486 108.583H35.4191L20.9213 75.1402Z" fill="white"/>
<path d="M171.046 109.42C196.316 109.42 196.316 69.7441 171.046 69.7441C145.775 69.7441 145.768 109.42 171.046 109.42ZM171.046 108.585C156.749 108.585 156.749 70.5718 171.046 70.5718C185.342 70.5718 185.134 108.585 171.046 108.585Z" fill="white"/>
</g>
<defs>
<clipPath id="clip0_1932_5005">
<rect width="190" height="125" fill="white"/>
</clipPath>
</defs>
</svg>
