<svg width="506" height="147" viewBox="0 0 506 147" fill="none" xmlns="http://www.w3.org/2000/svg">
<path d="M438.307 133.454C439.32 133.454 440.103 133.206 440.619 132.69C441.155 132.174 441.403 131.428 441.403 130.415C441.403 129.402 441.135 128.676 440.619 128.16C440.103 127.643 439.32 127.395 438.307 127.395H432.936V133.454H438.307ZM438.727 141.406C439.778 141.406 440.581 141.138 441.135 140.584C441.69 140.049 441.976 139.246 441.976 138.214C441.976 137.181 441.69 136.379 441.135 135.843C440.581 135.308 439.778 135.022 438.727 135.022H432.936V141.386H438.727V141.406ZM431.655 143.03C431.483 143.03 431.349 142.992 431.292 142.916C431.215 142.839 431.196 142.724 431.196 142.533V126.248C431.196 126.076 431.234 125.942 431.292 125.866C431.349 125.789 431.483 125.751 431.655 125.751H438.536C440.027 125.751 441.174 126.133 441.996 126.898C442.817 127.663 443.219 128.752 443.219 130.186C443.219 132.116 442.454 133.416 440.925 134.066V134.123C441.862 134.372 442.588 134.849 443.066 135.576C443.563 136.302 443.811 137.239 443.811 138.386C443.811 139.857 443.353 141.004 442.454 141.807C441.537 142.61 440.314 143.011 438.765 143.011H431.636L431.655 143.03ZM414.471 137.277C414.471 138.711 414.892 139.8 415.752 140.584C416.612 141.367 417.816 141.75 419.403 141.75C420.989 141.75 422.212 141.367 423.054 140.584C423.895 139.8 424.315 138.711 424.315 137.277V131.543C424.315 130.109 423.895 129.02 423.054 128.236C422.212 127.471 420.989 127.07 419.403 127.07C417.816 127.07 416.593 127.452 415.752 128.236C414.911 129.02 414.471 130.109 414.471 131.543V137.277ZM419.403 143.374C417.243 143.374 415.599 142.839 414.452 141.75C413.305 140.679 412.732 139.169 412.732 137.277V131.543C412.732 129.631 413.305 128.14 414.452 127.051C415.599 125.981 417.262 125.426 419.403 125.426C421.544 125.426 423.187 125.961 424.334 127.051C425.481 128.121 426.054 129.631 426.054 131.543V137.277C426.054 139.188 425.481 140.679 424.334 141.75C423.187 142.82 421.544 143.374 419.403 143.374ZM405.239 141.406V127.414H398.148V131.199C398.148 134.314 397.957 136.608 397.555 138.08C397.173 139.552 396.657 140.66 396.026 141.386H405.239V141.406ZM393.045 146.758C392.853 146.758 392.739 146.719 392.681 146.643C392.624 146.566 392.586 146.452 392.586 146.261V141.864C392.586 141.692 392.624 141.559 392.681 141.501C392.758 141.444 392.872 141.406 393.045 141.406H393.924C394.402 141.062 394.822 140.603 395.166 139.991C395.51 139.399 395.816 138.386 396.065 136.971C396.313 135.557 396.447 133.645 396.447 131.199V126.267C396.447 126.095 396.485 125.961 396.561 125.885C396.638 125.809 396.772 125.77 396.944 125.77H406.539C406.711 125.77 406.845 125.809 406.921 125.885C406.998 125.961 407.036 126.076 407.036 126.267V141.406H408.565C408.737 141.406 408.871 141.444 408.947 141.501C409.024 141.559 409.062 141.692 409.062 141.864V146.261C409.062 146.433 409.024 146.566 408.947 146.643C408.871 146.719 408.756 146.758 408.565 146.758H407.781C407.609 146.758 407.476 146.719 407.418 146.643C407.342 146.566 407.323 146.452 407.323 146.261V143.03H394.325V146.261C394.325 146.433 394.287 146.566 394.21 146.643C394.134 146.719 394.019 146.758 393.828 146.758H393.064H393.045ZM375.88 143.03C375.708 143.03 375.574 142.992 375.517 142.916C375.44 142.839 375.421 142.724 375.421 142.533V126.248C375.421 126.076 375.46 125.942 375.517 125.866C375.574 125.789 375.708 125.751 375.88 125.751H376.702C376.874 125.751 377.008 125.789 377.065 125.866C377.142 125.942 377.161 126.057 377.161 126.248V135.557C377.161 136.608 377.142 137.506 377.103 138.233C377.065 138.978 376.989 139.8 376.874 140.756H376.931C377.677 139.36 378.594 137.831 379.703 136.187L386.699 126C386.813 125.828 386.985 125.751 387.215 125.751H388.018C388.19 125.751 388.323 125.789 388.4 125.866C388.476 125.942 388.514 126.057 388.514 126.248V142.533C388.514 142.705 388.476 142.839 388.4 142.916C388.323 142.992 388.209 143.03 388.018 143.03H387.215C387.043 143.03 386.909 142.992 386.832 142.916C386.756 142.839 386.718 142.724 386.718 142.533V132.976C386.718 132.001 386.737 131.18 386.794 130.491C386.852 129.822 386.928 128.981 387.043 128.007H387.004C386.622 128.752 386.24 129.421 385.858 130.033C385.475 130.644 384.997 131.39 384.405 132.288L377.237 142.744C377.18 142.858 377.103 142.935 377.027 142.954C376.951 142.992 376.855 142.992 376.721 142.992H375.899L375.88 143.03ZM365.062 133.454C366.075 133.454 366.858 133.206 367.374 132.69C367.91 132.174 368.158 131.428 368.158 130.415C368.158 129.402 367.89 128.676 367.374 128.16C366.858 127.643 366.075 127.395 365.062 127.395H359.691V133.454H365.062ZM365.482 141.406C366.533 141.406 367.336 141.138 367.89 140.584C368.445 140.049 368.731 139.246 368.731 138.214C368.731 137.181 368.445 136.379 367.89 135.843C367.336 135.308 366.533 135.022 365.482 135.022H359.691V141.386H365.482V141.406ZM358.41 143.03C358.238 143.03 358.104 142.992 358.047 142.916C357.989 142.839 357.951 142.724 357.951 142.533V126.248C357.951 126.076 357.989 125.942 358.047 125.866C358.104 125.789 358.238 125.751 358.41 125.751H365.291C366.782 125.751 367.929 126.133 368.751 126.898C369.572 127.663 369.974 128.752 369.974 130.186C369.974 132.116 369.209 133.416 367.699 134.066V134.123C368.636 134.372 369.362 134.849 369.84 135.576C370.337 136.302 370.586 137.239 370.586 138.386C370.586 139.857 370.127 141.004 369.228 141.807C368.311 142.61 367.088 143.011 365.539 143.011H358.429L358.41 143.03ZM334.116 143.03C334.001 143.03 333.925 143.03 333.867 142.973C333.81 142.935 333.791 142.877 333.791 142.82C333.791 142.744 333.829 142.648 333.906 142.533L339.831 134.276L334.078 126.248C334.078 126.248 334.001 126.095 334.001 126.038C334.001 125.866 334.097 125.789 334.307 125.789H335.263C335.53 125.789 335.721 125.809 335.836 125.866C335.951 125.904 336.066 126.038 336.18 126.21L340.959 132.9L345.737 126.21C345.852 126.038 345.967 125.923 346.062 125.866C346.158 125.809 346.349 125.789 346.597 125.789H347.572C347.782 125.789 347.897 125.866 347.897 126.038C347.897 126.095 347.878 126.172 347.821 126.248L342.029 134.276L348.012 142.533C348.088 142.648 348.127 142.744 348.127 142.801C348.127 142.954 348.012 143.049 347.763 143.049H346.789C346.502 143.049 346.292 143.049 346.196 142.992C346.081 142.954 345.986 142.839 345.871 142.648L340.863 135.652L335.932 142.648C335.798 142.82 335.683 142.935 335.588 142.992C335.473 143.03 335.301 143.069 335.014 143.069H334.097L334.116 143.03ZM317.124 143.03C316.932 143.03 316.818 142.992 316.76 142.916C316.703 142.839 316.665 142.724 316.665 142.533V126.248C316.665 126.076 316.703 125.942 316.76 125.866C316.818 125.789 316.952 125.751 317.124 125.751H317.945C318.137 125.751 318.251 125.789 318.309 125.866C318.385 125.942 318.404 126.057 318.404 126.248V135.557C318.404 136.608 318.385 137.506 318.347 138.233C318.309 138.978 318.232 139.8 318.117 140.756H318.175C318.92 139.36 319.838 137.831 320.946 136.187L327.942 126C328.057 125.828 328.229 125.751 328.458 125.751H329.261C329.433 125.751 329.567 125.789 329.643 125.866C329.72 125.942 329.758 126.057 329.758 126.248V142.533C329.758 142.705 329.72 142.839 329.643 142.916C329.567 142.992 329.452 143.03 329.261 143.03H328.458C328.267 143.03 328.152 142.992 328.076 142.916C327.999 142.839 327.961 142.724 327.961 142.533V132.976C327.961 132.001 327.98 131.18 328.038 130.491C328.095 129.822 328.171 128.981 328.286 128.007H328.229C327.847 128.752 327.464 129.421 327.082 130.033C326.719 130.644 326.222 131.39 325.629 132.288L318.462 142.744C318.404 142.858 318.328 142.935 318.251 142.954C318.175 142.992 318.079 142.992 317.945 142.992H317.124V143.03ZM293.135 143.03C292.944 143.03 292.83 142.992 292.772 142.916C292.715 142.839 292.677 142.724 292.677 142.533V126.248C292.677 126.076 292.715 125.942 292.772 125.866C292.83 125.789 292.963 125.751 293.135 125.751H293.957C294.129 125.751 294.244 125.789 294.321 125.866C294.378 125.942 294.416 126.057 294.416 126.248V141.386H300.972V126.248C300.972 126.076 301.01 125.942 301.068 125.866C301.125 125.789 301.259 125.751 301.431 125.751H302.234C302.406 125.751 302.54 125.789 302.616 125.866C302.692 125.942 302.731 126.057 302.731 126.248V141.386H309.268V126.248C309.268 126.076 309.306 125.942 309.382 125.866C309.459 125.789 309.593 125.751 309.765 125.751H310.567C310.739 125.751 310.873 125.789 310.95 125.866C311.026 125.942 311.064 126.057 311.064 126.248V142.533C311.064 142.705 311.026 142.839 310.95 142.916C310.873 142.992 310.759 143.03 310.567 143.03H293.155H293.135ZM285.738 143.03C285.566 143.03 285.433 142.992 285.375 142.916C285.318 142.839 285.28 142.724 285.28 142.533V136.054C284.84 136.149 284.228 136.264 283.426 136.359C282.623 136.474 281.743 136.532 280.769 136.532C278.59 136.532 277.041 136.035 276.067 135.041C275.111 134.047 274.614 132.556 274.614 130.587V126.267C274.614 126.095 274.652 125.961 274.729 125.885C274.805 125.809 274.92 125.77 275.111 125.77H275.914C276.086 125.77 276.22 125.809 276.277 125.885C276.334 125.961 276.372 126.076 276.372 126.267V130.587C276.372 132.021 276.717 133.11 277.405 133.817C278.093 134.525 279.24 134.888 280.845 134.888C281.82 134.888 282.718 134.83 283.559 134.697C284.4 134.582 284.974 134.467 285.299 134.372V126.248C285.299 126.076 285.337 125.942 285.394 125.866C285.452 125.789 285.585 125.751 285.757 125.751H286.56C286.732 125.751 286.866 125.789 286.942 125.866C287.019 125.942 287.057 126.057 287.057 126.248V142.533C287.057 142.705 287.019 142.839 286.942 142.916C286.866 142.992 286.751 143.03 286.56 143.03H285.757H285.738ZM261.769 143.03C261.559 143.03 261.463 142.954 261.463 142.82C261.463 142.744 261.483 142.648 261.54 142.552L263.815 138.099L257.564 126.267C257.564 126.267 257.488 126.095 257.488 126.019C257.488 125.847 257.602 125.77 257.832 125.77H258.654C258.94 125.77 259.151 125.789 259.265 125.847C259.38 125.885 259.476 126.019 259.59 126.191L264.732 136.149L269.625 126.191C269.721 126 269.816 125.885 269.912 125.847C270.007 125.809 270.199 125.789 270.466 125.789H271.269C271.498 125.789 271.613 125.866 271.613 126.038C271.613 126.095 271.594 126.191 271.537 126.286L263.49 142.648C263.432 142.801 263.337 142.916 263.241 142.973C263.126 143.03 262.954 143.049 262.725 143.049H261.769V143.03ZM240.744 143.298C240.629 143.336 240.534 143.374 240.457 143.374C240.323 143.374 240.209 143.279 240.113 143.088L239.75 142.38C239.693 142.208 239.654 142.113 239.654 142.094C239.654 141.96 239.769 141.845 239.979 141.75C240.725 141.386 241.298 140.966 241.738 140.469C242.158 139.972 242.502 139.035 242.789 137.697C243.057 136.359 243.21 134.372 243.21 131.772V126.286C243.21 126.114 243.248 125.981 243.305 125.904C243.382 125.828 243.496 125.789 243.668 125.789H253.187C253.359 125.789 253.493 125.828 253.569 125.904C253.646 125.981 253.684 126.095 253.684 126.286V142.572C253.684 142.744 253.646 142.877 253.569 142.954C253.493 143.03 253.378 143.069 253.187 143.069H252.384C252.212 143.069 252.079 143.03 252.021 142.954C251.964 142.877 251.926 142.763 251.926 142.572V127.433H244.93V131.753C244.93 134.677 244.758 136.933 244.395 138.481C244.032 140.029 243.592 141.119 243.038 141.711C242.483 142.304 241.738 142.839 240.782 143.317M219.508 130.816C219.508 131.887 219.814 132.709 220.426 133.301C221.037 133.875 221.878 134.18 222.968 134.18H228.415V127.433H222.968C221.859 127.433 221.018 127.72 220.426 128.312C219.833 128.905 219.527 129.746 219.527 130.836M217.673 143.049C217.444 143.049 217.329 142.973 217.329 142.801C217.329 142.744 217.348 142.648 217.406 142.552L219.948 137.258C220.349 136.436 220.846 135.863 221.439 135.557C220.254 135.346 219.336 134.83 218.686 134.028C218.036 133.225 217.711 132.154 217.711 130.816C217.711 129.23 218.17 127.988 219.069 127.108C219.967 126.229 221.209 125.789 222.815 125.789H229.715C229.887 125.789 230.021 125.828 230.078 125.904C230.136 125.981 230.174 126.095 230.174 126.286V142.572C230.174 142.744 230.136 142.877 230.078 142.954C230.021 143.03 229.887 143.069 229.715 143.069H228.912C228.74 143.069 228.606 143.03 228.53 142.954C228.454 142.877 228.415 142.763 228.415 142.572V135.805H225.051C224.115 135.805 223.388 135.958 222.891 136.264C222.394 136.57 221.955 137.124 221.573 137.908L219.413 142.629C219.336 142.782 219.221 142.896 219.088 142.954C218.954 143.011 218.744 143.03 218.438 143.03H217.654L217.673 143.049ZM200.107 143.049C199.935 143.049 199.802 143.011 199.744 142.935C199.687 142.858 199.649 142.744 199.649 142.552V126.267C199.649 126.095 199.687 125.961 199.744 125.885C199.802 125.809 199.935 125.77 200.107 125.77H200.929C201.101 125.77 201.216 125.809 201.293 125.885C201.35 125.961 201.388 126.076 201.388 126.267V135.576C201.388 136.627 201.369 137.525 201.331 138.252C201.293 138.997 201.216 139.819 201.101 140.775H201.159C201.904 139.38 202.822 137.85 203.93 136.207L210.926 126.019C211.041 125.847 211.213 125.77 211.442 125.77H212.245C212.417 125.77 212.551 125.809 212.627 125.885C212.704 125.961 212.742 126.076 212.742 126.267V142.552C212.742 142.724 212.704 142.858 212.627 142.935C212.551 143.011 212.436 143.049 212.245 143.049H211.442C211.27 143.049 211.136 143.011 211.06 142.935C210.983 142.858 210.945 142.744 210.945 142.552V132.995C210.945 132.021 210.964 131.199 211.022 130.511C211.06 129.842 211.155 129.001 211.27 128.026H211.213C210.83 128.771 210.448 129.44 210.066 130.052C209.703 130.664 209.206 131.409 208.613 132.307L201.445 142.763C201.388 142.877 201.312 142.954 201.235 142.973C201.159 143.011 201.063 143.011 200.929 143.011H200.107V143.049ZM194.163 146.777C193.991 146.777 193.857 146.738 193.781 146.662C193.704 146.586 193.666 146.471 193.666 146.28V143.049H181.318C181.146 143.049 181.013 143.011 180.955 142.935C180.898 142.858 180.86 142.744 180.86 142.552V126.267C180.86 126.095 180.898 125.961 180.955 125.885C181.013 125.809 181.146 125.77 181.318 125.77H182.14C182.312 125.77 182.446 125.809 182.503 125.885C182.561 125.961 182.599 126.076 182.599 126.267V141.406H191.621V126.267C191.621 126.095 191.659 125.961 191.736 125.885C191.812 125.809 191.927 125.77 192.118 125.77H192.921C193.093 125.77 193.207 125.809 193.284 125.885C193.341 125.961 193.379 126.076 193.379 126.267V141.406H194.889C195.061 141.406 195.195 141.444 195.272 141.501C195.348 141.559 195.386 141.692 195.386 141.864V146.261C195.386 146.433 195.348 146.566 195.272 146.643C195.195 146.719 195.08 146.758 194.889 146.758H194.163V146.777ZM162.931 143.049C162.759 143.049 162.625 143.011 162.567 142.935C162.51 142.858 162.472 142.744 162.472 142.552V126.267C162.472 126.095 162.51 125.961 162.567 125.885C162.625 125.809 162.759 125.77 162.931 125.77H163.753C163.925 125.77 164.058 125.809 164.116 125.885C164.173 125.961 164.211 126.076 164.211 126.267V133.454H173.462V126.267C173.462 126.095 173.501 125.961 173.577 125.885C173.654 125.809 173.768 125.77 173.959 125.77H174.762C174.934 125.77 175.068 125.809 175.125 125.885C175.183 125.961 175.221 126.076 175.221 126.267V142.552C175.221 142.724 175.183 142.858 175.125 142.935C175.068 143.011 174.934 143.049 174.762 143.049H173.959C173.787 143.049 173.654 143.011 173.577 142.935C173.501 142.858 173.462 142.744 173.462 142.552V135.117H164.211V142.552C164.211 142.724 164.173 142.858 164.116 142.935C164.058 143.011 163.925 143.049 163.753 143.049H162.931ZM147.142 143.049C146.97 143.049 146.837 143.011 146.779 142.935C146.722 142.858 146.684 142.744 146.684 142.552V126.267C146.684 126.095 146.722 125.961 146.779 125.885C146.837 125.809 146.97 125.77 147.142 125.77H157.005C157.177 125.77 157.311 125.809 157.368 125.885C157.445 125.961 157.464 126.076 157.464 126.267V126.955C157.464 127.127 157.426 127.242 157.368 127.319C157.311 127.376 157.177 127.414 157.005 127.414H148.423V133.473H155.916C156.088 133.473 156.222 133.511 156.279 133.588C156.355 133.664 156.375 133.779 156.375 133.97V134.658C156.375 134.83 156.336 134.964 156.279 135.041C156.222 135.117 156.088 135.155 155.916 135.155H148.423V141.444H157.292C157.464 141.444 157.598 141.482 157.674 141.539C157.751 141.597 157.789 141.731 157.789 141.903V142.591C157.789 142.763 157.751 142.896 157.674 142.973C157.598 143.049 157.483 143.088 157.292 143.088H147.142V143.049ZM138.656 141.425V127.433H131.565V131.218C131.565 134.333 131.373 136.627 130.972 138.099C130.59 139.571 130.074 140.679 129.443 141.406H138.656V141.425ZM126.461 146.777C126.289 146.777 126.155 146.738 126.098 146.662C126.041 146.586 126.002 146.471 126.002 146.28V141.883C126.002 141.711 126.041 141.578 126.098 141.52C126.155 141.463 126.289 141.425 126.461 141.425H127.34C127.818 141.081 128.239 140.622 128.602 140.01C128.946 139.418 129.252 138.405 129.5 136.99C129.749 135.576 129.882 133.664 129.882 131.218V126.286C129.882 126.114 129.921 125.981 129.997 125.904C130.074 125.828 130.188 125.789 130.379 125.789H139.975C140.147 125.789 140.281 125.828 140.357 125.904C140.433 125.981 140.472 126.095 140.472 126.286V141.425H142.001C142.173 141.425 142.307 141.463 142.383 141.52C142.46 141.578 142.498 141.711 142.498 141.883V146.28C142.498 146.452 142.46 146.586 142.383 146.662C142.307 146.738 142.192 146.777 142.001 146.777H141.217C141.045 146.777 140.911 146.738 140.854 146.662C140.797 146.586 140.758 146.471 140.758 146.28V143.049H127.761V146.28C127.761 146.452 127.723 146.586 127.646 146.662C127.57 146.738 127.455 146.777 127.264 146.777H126.48H126.461ZM109.297 143.049C109.125 143.049 108.991 143.011 108.934 142.935C108.876 142.858 108.838 142.744 108.838 142.552V126.267C108.838 126.095 108.876 125.961 108.934 125.885C108.991 125.809 109.125 125.77 109.297 125.77H110.119C110.291 125.77 110.424 125.809 110.482 125.885C110.539 125.961 110.577 126.076 110.577 126.267V135.576C110.577 136.627 110.577 137.525 110.52 138.252C110.482 138.997 110.405 139.819 110.291 140.775H110.348C111.093 139.38 112.011 137.85 113.119 136.207L120.115 126.019C120.23 125.847 120.402 125.77 120.631 125.77H121.434C121.606 125.77 121.74 125.809 121.816 125.885C121.893 125.961 121.931 126.076 121.931 126.267V142.552C121.931 142.724 121.893 142.858 121.816 142.935C121.74 143.011 121.625 143.049 121.434 143.049H120.631C120.459 143.049 120.325 143.011 120.249 142.935C120.173 142.858 120.134 142.744 120.134 142.552V132.995C120.134 132.021 120.153 131.199 120.211 130.511C120.268 129.842 120.345 129.001 120.459 128.026H120.421C120.039 128.771 119.656 129.44 119.274 130.052C118.911 130.664 118.414 131.409 117.822 132.307L110.654 142.763C110.596 142.877 110.52 142.954 110.444 142.973C110.367 143.011 110.271 143.011 110.138 143.011H109.316L109.297 143.049ZM97.8091 143.393C95.8595 143.393 94.3495 143.03 93.26 142.323C92.1705 141.616 91.4059 140.545 90.9663 139.169C90.9281 139.035 90.909 138.959 90.909 138.902C90.909 138.749 91.0237 138.634 91.253 138.538L92.0176 138.271C92.1514 138.233 92.2279 138.214 92.2661 138.214C92.419 138.214 92.5528 138.328 92.6292 138.577C92.9924 139.666 93.5658 140.469 94.3495 140.985C95.1332 141.501 96.2991 141.769 97.8474 141.769C99.3 141.769 100.39 141.463 101.097 140.851C101.804 140.24 102.167 139.38 102.167 138.271C102.167 137.277 101.9 136.493 101.345 135.92C100.791 135.327 100.007 135.041 98.9942 135.041H94.8082C94.6362 135.041 94.5024 135.002 94.4451 134.945C94.3877 134.869 94.3495 134.754 94.3495 134.582V133.932C94.3495 133.76 94.3877 133.626 94.4451 133.569C94.5024 133.492 94.6362 133.473 94.8082 133.473H98.8222C99.7779 133.473 100.504 133.187 100.982 132.632C101.46 132.078 101.708 131.352 101.708 130.453C101.708 129.345 101.383 128.523 100.714 127.949C100.045 127.376 99.0707 127.089 97.7518 127.089C96.2991 127.089 95.1905 127.338 94.4451 127.835C93.6996 128.332 93.1453 129.115 92.8013 130.205C92.7057 130.434 92.591 130.549 92.4381 130.549C92.3999 130.549 92.3234 130.549 92.1896 130.491L91.4251 130.224C91.1957 130.128 91.081 130.014 91.081 129.88C91.081 129.822 91.081 129.746 91.1384 129.612C91.578 128.217 92.3234 127.185 93.3747 126.497C94.4451 125.809 95.9169 125.464 97.8283 125.464C99.7397 125.464 101.078 125.885 102.033 126.726C102.989 127.567 103.467 128.752 103.467 130.3C103.467 131.199 103.276 131.982 102.913 132.651C102.549 133.32 101.995 133.817 101.25 134.123C102.186 134.448 102.874 134.964 103.333 135.71C103.773 136.436 104.002 137.315 104.002 138.366C104.002 139.972 103.486 141.214 102.454 142.094C101.422 142.973 99.8735 143.413 97.8283 143.413M76.6117 143.069C76.4206 143.069 76.3059 143.03 76.2485 142.954C76.1912 142.877 76.153 142.763 76.153 142.572V126.286C76.153 126.114 76.1912 125.981 76.2485 125.904C76.3059 125.828 76.4397 125.789 76.6117 125.789H86.4745C86.6657 125.789 86.7804 125.828 86.8377 125.904C86.895 125.981 86.9333 126.095 86.9333 126.286V126.975C86.9333 127.147 86.895 127.261 86.8377 127.338C86.7804 127.395 86.6466 127.433 86.4745 127.433H77.8923V133.492H85.385C85.5571 133.492 85.6909 133.531 85.7482 133.607C85.8055 133.684 85.8438 133.798 85.8438 133.989V134.677C85.8438 134.849 85.8055 134.983 85.7482 135.06C85.6909 135.136 85.5571 135.174 85.385 135.174H77.8923V141.463H86.7612C86.9333 141.463 87.0671 141.501 87.1435 141.559C87.22 141.616 87.2582 141.75 87.2582 141.922V142.61C87.2582 142.782 87.22 142.916 87.1435 142.992C87.0671 143.069 86.9524 143.107 86.7612 143.107H76.6117V143.069ZM66.0034 134.945C67.1885 134.945 68.1251 134.62 68.7941 133.951C69.4822 133.282 69.8071 132.365 69.8071 131.199C69.8071 130.033 69.463 129.096 68.7941 128.427C68.1251 127.758 67.1885 127.433 66.0034 127.433H60.9191V134.945H66.0034ZM59.6384 143.069C59.4664 143.069 59.3326 143.03 59.2753 142.954C59.2179 142.877 59.1797 142.763 59.1797 142.572V126.286C59.1797 126.114 59.2179 125.981 59.2753 125.904C59.3326 125.828 59.4664 125.789 59.6384 125.789H66.1563C67.8575 125.789 69.1954 126.267 70.1703 127.223C71.1451 128.179 71.642 129.498 71.642 131.18C71.642 132.862 71.1451 134.18 70.1703 135.136C69.1954 136.073 67.8383 136.551 66.1563 136.551H60.9382V142.552C60.9382 142.724 60.9 142.858 60.8426 142.935C60.7853 143.011 60.6515 143.049 60.4794 143.049H59.6575L59.6384 143.069Z" fill="#5D5553"/>
<path d="M112.641 68.696H158.438L167.823 91.8622C171.684 100.139 175.545 103.445 184.93 103.445L194.85 102.891L156.221 13.5138C152.914 4.68309 148.499 1.93066 139.668 1.93066H129.174L133.59 11.87L96.623 103.445H98.8212L112.621 68.696H112.641ZM134.717 14.0681L157.329 67.0331H113.195L134.717 14.0681Z" fill="#5D5553"/>
<path d="M197.793 90.4857C197.793 102.069 206.624 103.177 214.346 103.177H237.512C267.292 103.177 275.587 87.7333 275.587 74.4873C275.587 59.0431 265.093 47.46 245.788 45.7971C260.678 42.4904 268.4 33.6597 268.4 24.829C268.4 13.2459 256.263 2.198 231.988 2.198H197.793V90.4666V90.4857ZM218.207 45.2428V3.86092H229.79C240.819 3.86092 245.788 14.3545 245.788 24.829C245.788 35.3035 240.264 45.2428 229.236 45.2428H218.207ZM218.207 47.4409H229.79C245.788 47.4409 253.51 60.6869 253.51 73.9138C253.51 87.1408 245.788 101.495 229.79 101.495H218.207V47.4218V47.4409Z" fill="#5D5553"/>
<path d="M420.586 48.8174H391.533V14.6224C391.533 3.03928 382.702 1.93066 375.534 1.93066H371.119V90.7536C371.119 101.782 379.95 103.445 387.672 103.445L391.533 102.891V50.4803H420.586V48.8174Z" fill="#5D5553"/>
<path d="M281.51 103.159H312.398C344.949 103.159 360.948 86.6057 360.948 69.4987C360.948 52.3916 344.949 36.3932 312.398 35.8389H301.369V2.21729H297.508C289.786 2.21729 281.51 3.30679 281.51 14.8899V103.159ZM301.369 38.0561H311.844C330.059 37.5018 338.871 54.0545 338.871 69.4987C338.871 86.0514 329.486 101.496 311.844 101.496H301.369V38.0752V38.0561Z" fill="#5D5553"/>
<path d="M55.7174 14.1374C51.3021 4.21723 46.8867 2 38.6103 2H36.9665L0 102.96H2.19811L34.195 14.6917L67.3005 90.8229C71.1615 100.743 75.5769 102.96 83.8533 102.96H94.3278L55.7174 14.1374Z" fill="#5D5553"/>
<path d="M455.526 105.376C522.826 105.376 522.826 0 455.526 0C388.225 0 388.206 105.376 455.526 105.376ZM455.526 103.158C417.45 103.158 417.45 2.19811 455.526 2.19811C493.601 2.19811 493.046 103.158 455.526 103.158Z" fill="#5D5553"/>
</svg>
