<svg width="46" height="66" viewBox="0 0 46 66" fill="none" xmlns="http://www.w3.org/2000/svg">
<path d="M32.65 63C33.5633 62.0522 34.2236 60.8899 34.5702 59.6201C34.9168 58.3503 34.9385 57.0137 34.6333 55.7333C33.2333 49.6167 27.2833 48.55 21.3 48.55C15.8667 48.55 12.7833 44.5167 12.7833 39.3333C12.7833 28.3833 24.15 22.15 24.15 22.15C24.15 22.15 8.3 24.3333 2.73333 33.65M22.4833 0.5L40.8167 31.0333C43.2008 34.739 44.5211 39.0284 44.6333 43.4333C44.6333 49.2858 42.3085 54.8985 38.1702 59.0368C34.0319 63.1751 28.4191 65.5 22.5667 65.5C16.7142 65.5 11.1015 63.1751 6.96318 59.0368C2.82487 54.8985 0.5 49.2858 0.5 43.4333C0.612258 39.0284 1.93252 34.739 4.31667 31.0333L22.4833 0.5Z" stroke="#CBBFAF" stroke-linecap="round" stroke-linejoin="round"/>
</svg>
