<svg width="65" height="65" viewBox="0 0 65 65" fill="none" xmlns="http://www.w3.org/2000/svg">
<path d="M26.5 29.5L4.5 17.5M39.5 32.5C39.5 36.366 36.366 39.5 32.5 39.5C28.634 39.5 25.5 36.366 25.5 32.5C25.5 28.634 28.634 25.5 32.5 25.5C36.366 25.5 39.5 28.634 39.5 32.5ZM64.5 32.5C64.5 50.1731 50.1731 64.5 32.5 64.5C14.8269 64.5 0.5 50.1731 0.5 32.5C0.5 14.8269 14.8269 0.5 32.5 0.5C50.1731 0.5 64.5 14.8269 64.5 32.5ZM51.5 32.5C51.5 42.9934 42.9934 51.5 32.5 51.5C22.0066 51.5 13.5 42.9934 13.5 32.5C13.5 22.0066 22.0066 13.5 32.5 13.5C42.9934 13.5 51.5 22.0066 51.5 32.5Z" stroke="#CBBFAF" stroke-linecap="round" stroke-linejoin="round"/>
</svg>
