<svg width="66" height="40" viewBox="0 0 66 40" fill="none" xmlns="http://www.w3.org/2000/svg">
<path d="M32.1275 27.7256L47.5692 7.87891H27.3792L11.8809 27.7256H32.1275ZM32.1275 27.7256L25.893 1.58667M54.118 27.725L45.1397 0.5H38.533M21.8613 1.58667H30.268M65.4997 27.7254C65.4997 34.0113 60.4039 39.1071 54.118 39.1071C47.8321 39.1071 42.7363 34.0113 42.7363 27.7254C42.7363 21.4395 47.8321 16.3438 54.118 16.3438C60.4039 16.3438 65.4997 21.4395 65.4997 27.7254ZM23.2633 27.7254C23.2633 34.0113 18.1676 39.1071 11.8817 39.1071C5.59575 39.1071 0.5 34.0113 0.5 27.7254C0.5 21.4395 5.59575 16.3438 11.8817 16.3438C18.1676 16.3438 23.2633 21.4395 23.2633 27.7254Z" stroke="#CBBFAF" stroke-linecap="round" stroke-linejoin="round"/>
</svg>
