<svg width="318" height="88" viewBox="0 0 318 88" fill="none" xmlns="http://www.w3.org/2000/svg">
<path d="M271.883 71.7205V71.705C280.208 71.8595 289.73 71.8595 300.451 71.7127H340.143C333.686 76.7711 326.63 82.8565 320.04 87.521C318.998 88.2701 317.551 88.7335 315.551 88.7335C298.817 88.7335 282.09 88.7335 265.356 88.7335H242.304C228.557 88.7335 210.757 80.7714 200.636 72.0834C185.053 58.8236 177.623 37.455 189.129 19.7779C174.853 21.6158 158.524 31.748 149.421 38.3817C118.652 61.2022 81.0446 88.7257 40.7218 88.7257H0.959249C-4.3388 88.6717 -18.8248 75.4737 -23.6094 71.7127H2.41407C6.90302 71.6896 11.143 71.6509 15.1574 71.5737C26.6948 71.7899 37.5788 71.0563 47.8092 69.3728C57.2072 67.9904 65.6405 65.8049 74.2528 62.3606L74.315 62.3374C91.5784 55.4256 109.581 43.4478 137.542 22.7202C176.689 -6.37878 217.137 -10.4255 232.899 27.6936C211.745 13.1518 190.047 37.0843 213.426 57.171C224.761 66.9401 241.402 70.1914 257.669 71.2494H257.74C262.532 71.5583 267.293 71.6818 271.875 71.7205" fill="#F4F4F2"/>
</svg>
