<svg width="466" height="130" viewBox="0 0 466 130" fill="none" xmlns="http://www.w3.org/2000/svg">
<path d="M398.297 105.67V105.647C410.492 105.874 424.442 105.874 440.147 105.658H498.295C488.835 113.111 478.498 122.077 468.845 128.949C467.317 130.053 465.198 130.736 462.269 130.736C437.753 130.736 413.25 130.736 388.734 130.736H354.965C334.826 130.736 308.75 119.005 293.922 106.204C271.094 86.668 260.209 55.1845 277.066 29.1398C256.152 31.8478 232.23 46.776 218.895 56.5499C173.819 90.1725 118.726 130.724 59.6547 130.724H1.40414C-6.35728 130.645 -27.5787 111.199 -34.5879 105.658H3.5354C10.1115 105.624 16.3229 105.567 22.2038 105.453C39.1057 105.772 55.0503 104.691 70.0375 102.211C83.8052 100.174 96.1596 96.9539 108.776 91.8792L108.867 91.8451C134.158 81.6616 160.53 64.014 201.492 33.4749C258.842 -9.39822 318.095 -15.3604 341.186 40.8024C310.197 19.3773 278.411 54.6383 312.659 84.2331C329.264 98.6265 353.643 103.417 377.474 104.976H377.577C384.597 105.431 391.572 105.613 398.285 105.67" fill="#F4F4F2"/>
</svg>
