<svg width="674" height="188" viewBox="0 0 674 188" fill="none" xmlns="http://www.w3.org/2000/svg">
<g clip-path="url(#clip0_1705_4651)">
<path d="M576.255 153.221V153.188C593.898 153.518 614.081 153.518 636.803 153.205H720.931C707.245 164.011 692.29 177.012 678.323 186.977C676.114 188.577 673.047 189.567 668.809 189.567C633.34 189.567 597.888 189.567 562.42 189.567H513.562C484.426 189.567 446.698 172.557 425.246 153.997C392.218 125.669 376.471 80.0179 400.858 42.253C370.6 46.1796 335.989 67.8256 316.697 81.9977C251.482 130.75 171.773 189.551 86.3088 189.551H2.03211C-9.19709 189.435 -39.9001 161.24 -50.041 153.205H5.1156C14.6299 153.155 23.6166 153.073 32.125 152.908C56.5786 153.37 79.6471 151.802 101.331 148.206C121.25 145.253 139.124 140.584 157.378 133.225L157.509 133.176C194.099 118.41 232.255 92.8206 291.518 48.5389C374.492 -13.6271 460.219 -22.2722 493.627 59.1639C448.792 28.0974 402.804 79.2259 452.354 122.138C476.379 143.009 511.65 149.955 546.129 152.215H546.277C556.434 152.875 566.526 153.139 576.238 153.221" fill="white"/>
<path d="M576.255 153.221V153.188C593.898 153.518 614.081 153.518 636.803 153.205H720.931C707.245 164.011 692.29 177.012 678.323 186.977C676.114 188.577 673.047 189.567 668.809 189.567C633.34 189.567 597.888 189.567 562.42 189.567H513.562C484.426 189.567 446.698 172.557 425.246 153.997C392.218 125.669 376.471 80.0179 400.858 42.253C370.6 46.1796 335.989 67.8256 316.697 81.9977C251.482 130.75 171.773 189.551 86.3088 189.551H2.03211C-9.19709 189.435 -39.9001 161.24 -50.041 153.205H5.1156C14.6299 153.155 23.6166 153.073 32.125 152.908C56.5786 153.37 79.6471 151.802 101.331 148.206C121.25 145.253 139.124 140.584 157.378 133.225L157.509 133.176C194.099 118.41 232.255 92.8206 291.518 48.5389C374.492 -13.6271 460.219 -22.2722 493.627 59.1639C448.792 28.0974 402.804 79.2259 452.354 122.138C476.379 143.009 511.65 149.955 546.129 152.215H546.277C556.434 152.875 566.526 153.139 576.238 153.221" fill="white"/>
</g>
<defs>
<clipPath id="clip0_1705_4651">
<rect width="674" height="188" fill="white"/>
</clipPath>
</defs>
</svg>
