<svg width="1800" height="188" viewBox="0 0 1800 188" fill="none" xmlns="http://www.w3.org/2000/svg">
<g clip-path="url(#clip0_1705_4662)">
<path d="M1139.25 153.221V153.188C1156.9 153.518 1177.08 153.518 1199.8 153.205H1283.93C1270.25 164.011 1255.29 177.012 1241.32 186.977C1239.11 188.577 1236.05 189.567 1231.81 189.567C1196.34 189.567 1160.89 189.567 1125.42 189.567H1076.56C1047.43 189.567 1009.7 172.557 988.246 153.996C955.218 125.669 939.471 80.0176 963.858 42.2528C933.6 46.1794 898.989 67.8253 879.697 81.9974C814.482 130.75 734.773 189.551 649.309 189.551H565.032C553.803 189.435 523.1 161.239 512.959 153.205H568.116C577.63 153.155 586.617 153.073 595.125 152.908C619.579 153.37 642.647 151.802 664.331 148.206C684.25 145.252 702.124 140.583 720.378 133.225L720.509 133.175C757.099 118.409 795.255 92.8204 854.518 48.5387C937.492 -13.6273 1023.22 -22.2725 1056.63 59.1636C1011.79 28.0971 965.804 79.2257 1015.35 122.138C1039.38 143.009 1074.65 149.954 1109.13 152.215H1109.28C1119.43 152.875 1129.53 153.139 1139.24 153.221" fill="#F4F4F2"/>
</g>
<rect y="153" width="563" height="35" fill="#F4F4F2"/>
<rect x="1237" y="153" width="563" height="35" fill="#F4F4F2"/>
<defs>
<clipPath id="clip0_1705_4662">
<rect width="674" height="188" fill="white" transform="translate(563)"/>
</clipPath>
</defs>
</svg>
